<svg width="38" height="35" viewBox="0 0 38 35" fill="none" xmlns="http://www.w3.org/2000/svg">
<path d="M0.675781 34.6535L1.52903 28.2618C3.64922 28.4158 5.2523 28.0051 6.33825 27.0297C7.42421 26.0543 8.12232 24.7195 8.4326 23.0253C8.74287 21.3311 8.82043 19.4573 8.6653 17.4037H0.675781V0H15.8791V19.714C15.8791 25.1045 14.5605 29.1603 11.9232 31.8812C9.23413 34.6535 5.485 35.5776 0.675781 34.6535ZM22.4724 34.6535L23.3257 28.2618C25.4459 28.4158 27.0489 28.0051 28.1349 27.0297C29.2209 26.0543 29.919 24.7195 30.2292 23.0253C30.5395 21.3311 30.6171 19.4573 30.4619 17.4037H22.4724V0H37.6758V19.714C37.6758 25.1045 36.3571 29.1603 33.7198 31.8812C31.0308 34.6535 27.2817 35.5776 22.4724 34.6535Z" fill="#3B6F80" fill-opacity="0.68"/>
</svg>
