<svg width="38" height="35" viewBox="0 0 38 35" fill="none" xmlns="http://www.w3.org/2000/svg">
<path d="M37.6758 0.346535L36.8225 6.73818C34.7023 6.58416 33.0993 6.99487 32.0133 7.97029C30.9274 8.94573 30.2292 10.2805 29.919 11.9747C29.6087 13.6689 29.5311 15.5427 29.6863 17.5963H37.6758V35H22.4724V15.286C22.4724 9.89549 23.7911 5.83975 26.4284 3.11881C29.1174 0.346534 32.8666 -0.577558 37.6758 0.346535ZM15.8791 0.346535L15.0259 6.73818C12.9057 6.58416 11.3026 6.99487 10.2167 7.97029C9.13071 8.94573 8.4326 10.2805 8.12232 11.9747C7.81205 13.6689 7.73448 15.5427 7.88962 17.5963H15.8791V35H0.675781V15.286C0.675781 9.89549 1.99444 5.83975 4.63176 3.11881C7.32079 0.346534 11.0699 -0.577558 15.8791 0.346535Z" fill="#3B6F80" fill-opacity="0.68"/>
</svg>
