<svg width="190" height="48" viewBox="0 0 190 48" fill="none" xmlns="http://www.w3.org/2000/svg">
<path d="M46.8245 0.493069C39.5729 7.95699 32.3918 15.3495 25.1941 22.7597C32.4068 30.028 39.5826 37.2584 46.8245 44.5549H46.3971C42.2809 44.5567 38.1656 44.5602 34.0494 44.5531C33.9058 44.5531 33.7251 44.4818 33.6247 44.3804C30.7202 41.4645 27.8254 38.5397 24.9262 35.6193C22.5055 33.1801 20.0821 30.7436 17.6543 28.3114C17.5706 28.2277 17.4288 28.1563 17.3133 28.1554C14.8847 28.1484 12.4569 28.151 10.0283 28.1537C9.93839 28.1537 9.84939 28.1651 9.74276 28.173V35.4219H10.0979C11.9194 35.4219 13.7408 35.4184 15.5614 35.4281C15.6972 35.4281 15.8699 35.488 15.9633 35.5814C18.7312 38.3714 21.4912 41.1693 24.252 43.9671C24.4221 44.139 24.5825 44.3205 24.7913 44.5443H0V0.597053H24.6362C24.5825 0.664025 24.534 0.734523 24.4759 0.795327C21.693 3.65665 18.911 6.51973 16.1166 9.37047C15.9932 9.49648 15.7597 9.57227 15.5755 9.57491C13.8572 9.59342 12.1388 9.58989 10.4204 9.59342C10.2054 9.59342 9.9895 9.59342 9.74981 9.59342V19.4613C9.83617 19.4684 9.9146 19.4807 9.99391 19.4807C11.8771 19.4789 13.7602 19.4789 15.6425 19.464C15.7835 19.4631 15.9598 19.3838 16.0585 19.2807C20.5897 14.5608 25.113 9.83399 29.6389 5.10889C31.048 3.63814 32.4606 2.17091 33.8811 0.71073C33.9807 0.608508 34.1543 0.528317 34.2953 0.525674C35.4885 0.505406 36.6825 0.502762 37.8757 0.501C40.7564 0.496594 43.638 0.494831 46.5187 0.492188H46.8245" fill="#C5922C"/>
<path d="M53.7422 27.2924V0.904297H70.4801V4.52258H58.0399V11.5723H68.7837V15.1536H58.0399V23.6732H70.4801V27.2924H53.7422Z" fill="#3B6F80"/>
<path d="M73.1191 27.2924V0.904297H77.379V16.5107L84.0894 8.5947H89.5177L81.2995 17.6792L89.9707 27.2924H84.4666L77.379 18.7728V27.2924H73.1191Z" fill="#3B6F80"/>
<path d="M93.363 27.6696C92.5584 27.6696 91.8861 27.3929 91.3459 26.8404C90.8048 26.2879 90.5352 25.6217 90.5352 24.8427C90.5352 24.0637 90.8048 23.4045 91.3459 22.8635C91.8861 22.3233 92.5584 22.0527 93.363 22.0527C94.1675 22.0527 94.8011 22.3233 95.3422 22.8635C95.8824 23.4045 96.1529 24.0637 96.1529 24.8427C96.1529 25.6217 95.8824 26.2879 95.3422 26.8404C94.8011 27.3929 94.142 27.6696 93.363 27.6696Z" fill="#3B6F80"/>
<path d="M100.487 5.61689C99.7081 5.61689 99.0419 5.34107 98.4894 4.78766C97.936 4.23514 97.6602 3.56894 97.6602 2.78994C97.6602 2.01094 97.9369 1.35179 98.4894 0.810722C99.0419 0.270534 99.7081 0 100.487 0C101.266 0 101.932 0.270534 102.485 0.810722C103.037 1.35179 103.314 2.01094 103.314 2.78994C103.314 3.56894 103.037 4.23514 102.485 4.78766C101.931 5.34107 101.265 5.61689 100.487 5.61689ZM98.3387 8.59541H102.636V27.2931H98.3387V8.59541Z" fill="#3B6F80"/>
<path d="M105.5 27.2932V8.59552H109.647L109.723 11.159C110.351 10.1791 111.217 9.43092 112.324 8.91541C113.43 8.40077 114.586 8.14258 115.793 8.14258C117.979 8.14258 119.751 8.83433 121.108 10.2161C122.465 11.5987 123.144 13.6343 123.144 16.3229V27.2932H118.922V16.8508C118.922 15.2672 118.545 14.0238 117.791 13.1188C117.037 12.2138 115.931 11.7617 114.473 11.7617C113.016 11.7617 111.866 12.2455 111.024 13.2131C110.182 14.1807 109.762 15.4937 109.762 17.1522V27.2932H105.502H105.5Z" fill="#3B6F80"/>
<path d="M133.737 27.7445C131.876 27.7445 130.288 27.2977 128.967 26.4059C127.648 25.5141 126.63 24.3262 125.914 22.8431C125.198 21.3609 124.84 19.7016 124.84 17.8669C124.84 16.0322 125.198 14.4178 125.914 12.947C126.63 11.4772 127.654 10.3087 128.987 9.44155C130.318 8.57443 131.902 8.14087 133.737 8.14087C135.043 8.14087 136.262 8.4114 137.393 8.95159C138.523 9.49266 139.441 10.2778 140.145 11.308V0.904297H144.443V27.2924H140.259L140.146 24.4655C139.543 25.4709 138.676 26.2693 137.544 26.8588C136.414 27.4493 135.144 27.7445 133.737 27.7445ZM134.679 24.0125C135.809 24.0125 136.777 23.749 137.581 23.2212C138.386 22.6933 139.014 21.9716 139.466 21.0534C139.918 20.136 140.145 19.0997 140.145 17.9435C140.145 16.612 139.887 15.4929 139.372 14.5887C138.857 13.6837 138.178 13.0052 137.336 12.5531C136.494 12.1011 135.596 11.8746 134.641 11.8746C133.585 11.8746 132.648 12.1328 131.832 12.6474C131.015 13.1629 130.375 13.867 129.909 14.7588C129.444 15.6515 129.212 16.7001 129.212 17.9065C129.212 19.1129 129.451 20.1369 129.929 21.0543C130.406 21.9716 131.053 22.6942 131.87 23.222C132.686 23.7499 133.623 24.0134 134.679 24.0134" fill="#3B6F80"/>
<path d="M157.636 27.7445C155.248 27.7445 153.307 27.2677 151.812 26.3116C150.317 25.3572 149.223 24.0812 148.532 22.4853C147.841 20.8895 147.496 19.1623 147.496 17.302V0.904297H151.756V17.3408C151.756 19.5782 152.29 21.2234 153.358 22.2791C154.426 23.3348 155.877 23.8627 157.712 23.8627C159.547 23.8627 160.997 23.3348 162.066 22.2791C163.134 21.2234 163.668 19.5782 163.668 17.3408V0.904297H167.928V17.3029C167.928 19.2883 167.627 20.9476 167.023 22.2791C166.42 23.6115 165.61 24.6796 164.592 25.4833C163.574 26.2878 162.456 26.8659 161.237 27.2175C160.017 27.5691 158.818 27.7453 157.637 27.7453" fill="#3B6F80"/>
<path d="M180.293 27.7452C178.484 27.7452 176.837 27.4244 175.355 26.7838C173.872 26.1431 172.697 25.2002 171.83 23.9568C170.963 22.7125 170.516 21.1739 170.492 19.3392H174.978C175.003 20.7474 175.493 21.8965 176.448 22.7883C177.403 23.681 178.673 24.1269 180.256 24.1269C181.663 24.1269 182.794 23.8008 183.649 23.147C184.503 22.494 184.931 21.5766 184.931 20.3949C184.931 19.7164 184.818 19.1454 184.592 18.6801C184.365 18.2157 183.989 17.8006 183.461 17.4358C182.933 17.0718 182.229 16.7194 181.35 16.3801C180.469 16.0408 179.352 15.6451 177.995 15.1922C176.411 14.6644 175.117 14.0554 174.112 13.3637C173.107 12.6728 172.372 11.8691 171.907 10.9509C171.441 10.0335 171.21 9.00957 171.21 7.87809C171.21 6.26986 171.592 4.91278 172.359 3.80685C173.126 2.70092 174.169 1.86553 175.489 1.29979C176.808 0.734043 178.272 0.451172 179.881 0.451172C181.49 0.451172 182.984 0.740212 184.291 1.31829C185.598 1.89637 186.653 2.74499 187.458 3.86325C188.262 4.98152 188.677 6.34565 188.703 7.95387H184.141C184.141 6.8735 183.739 5.95615 182.935 5.20182C182.13 4.4475 181.062 4.07122 179.731 4.07122C178.6 4.04655 177.639 4.33559 176.847 4.93834C176.055 5.54197 175.659 6.42143 175.659 7.57759C175.659 8.38214 175.916 9.04746 176.432 9.57531C176.946 10.1032 177.681 10.5684 178.636 10.9703C179.591 11.3721 180.748 11.8127 182.105 12.2895C182.934 12.5662 183.783 12.8922 184.65 13.2694C185.517 13.6465 186.308 14.1303 187.025 14.7208C187.741 15.3112 188.325 16.0399 188.777 16.9071C189.23 17.7742 189.456 18.8484 189.456 20.1306C189.456 21.7141 189.047 23.0774 188.231 24.2212C187.414 25.365 186.314 26.2383 184.933 26.841C183.55 27.4447 182.004 27.746 180.296 27.746" fill="#3B6F80"/>
<path d="M58.4265 44.5572C57.6282 44.5572 56.9197 44.4198 56.301 44.1439C55.6833 43.869 55.1625 43.4786 54.7404 42.9737C54.3183 42.4687 53.9975 41.8642 53.779 41.161C53.5604 40.4569 53.4512 39.677 53.4512 38.8205C53.4512 37.6837 53.6433 36.6853 54.0275 35.8261C54.4117 34.9669 54.9722 34.2972 55.7097 33.8187C56.4473 33.3393 57.3532 33.0996 58.4265 33.0996C59.4999 33.0996 60.4472 33.3596 61.1618 33.8795C61.8765 34.3994 62.3788 35.0832 62.6687 35.9292L61.799 36.1971C61.5443 35.5186 61.131 34.9775 60.5591 34.5712C59.9872 34.165 59.2831 33.9606 58.4494 33.9553C57.5488 33.9553 56.7998 34.1606 56.2023 34.5712C55.6049 34.9819 55.1554 35.5538 54.8558 36.2887C54.5553 37.0228 54.4002 37.867 54.3905 38.8205C54.38 39.774 54.5263 40.6164 54.8294 41.3487C55.1317 42.081 55.5864 42.6547 56.1918 43.0697C56.7972 43.4857 57.5497 43.6927 58.4503 43.6927C59.3104 43.698 60.0136 43.5297 60.56 43.1878C61.1063 42.8459 61.5134 42.3656 61.7805 41.7461C62.0475 41.1266 62.1911 40.4014 62.2114 39.5695H59.4796V38.7667H63.127C63.1419 38.8945 63.1507 39.0188 63.1534 39.1412C63.156 39.2637 63.1569 39.358 63.1569 39.4241C63.1569 40.3979 62.9877 41.2729 62.6493 42.0475C62.3109 42.823 61.7919 43.4345 61.0931 43.8831C60.3934 44.3316 59.5043 44.5563 58.4265 44.5563V44.5572Z" fill="#221F1F"/>
<path d="M67.065 44.5567C66.4287 44.5567 65.9018 44.4448 65.4814 44.22C65.062 43.9953 64.7474 43.6984 64.5394 43.3291C64.3305 42.9599 64.2266 42.5581 64.2266 42.1245C64.2266 41.6557 64.3244 41.2627 64.52 40.9463C64.7156 40.63 64.9782 40.3753 65.3061 40.1814C65.6339 39.9875 65.9969 39.8421 66.3935 39.7452C66.8464 39.643 67.3346 39.5558 67.8589 39.4817C68.3833 39.4077 68.8829 39.3425 69.3588 39.287C69.8346 39.2306 70.2224 39.1821 70.5229 39.1416L70.2021 39.3328C70.2224 38.4401 70.0558 37.7766 69.7025 37.3404C69.3491 36.9042 68.7269 36.6865 67.8369 36.6865C67.2112 36.6865 66.6957 36.8284 66.2921 37.1113C65.8885 37.3941 65.6039 37.8312 65.4418 38.4234L64.5412 38.1714C64.7289 37.4214 65.1087 36.8451 65.6779 36.4424C66.2472 36.0397 66.9777 35.8379 67.8678 35.8379C68.6256 35.8379 69.2627 35.9859 69.7791 36.2811C70.2955 36.5772 70.6551 36.9923 70.8586 37.5281C70.945 37.7475 71.004 38.0039 71.034 38.2965C71.0648 38.5899 71.0798 38.8843 71.0798 39.1804V44.3284H70.2788V42.1562L70.5766 42.2329C70.3272 42.9775 69.8919 43.5512 69.2715 43.9539C68.6512 44.3566 67.9162 44.5584 67.0658 44.5584L67.065 44.5567ZM67.1108 43.7459C67.6704 43.7459 68.1612 43.6455 68.5833 43.4437C69.0054 43.2428 69.3473 42.959 69.6099 42.5951C69.8716 42.2303 70.0382 41.8011 70.1096 41.3059C70.1607 41.0309 70.188 40.7322 70.1933 40.4105C70.1986 40.0889 70.2012 39.8518 70.2012 39.6994L70.5828 39.9444C70.2523 39.9849 69.8567 40.0281 69.3967 40.0748C68.9358 40.1206 68.467 40.177 67.9885 40.2431C67.51 40.3092 67.0782 40.3938 66.6913 40.4951C66.4525 40.5612 66.2119 40.6573 65.9705 40.7815C65.729 40.9067 65.5281 41.0785 65.3677 41.2979C65.2074 41.5173 65.1272 41.7949 65.1272 42.1316C65.1272 42.3818 65.1897 42.6312 65.314 42.8815C65.4382 43.1317 65.6462 43.3379 65.9361 43.501C66.226 43.664 66.6173 43.7459 67.1108 43.7459Z" fill="#221F1F"/>
<path d="M72.1465 36.869V36.0662H77.4347V36.869H72.1465ZM77.4347 44.3267C76.9967 44.4237 76.5649 44.4607 76.1375 44.4378C75.7101 44.4148 75.3303 44.3179 74.9963 44.147C74.6632 43.976 74.413 43.7125 74.2447 43.3556C74.1072 43.0648 74.0314 42.7714 74.0155 42.4762C74.0006 42.1801 73.9926 41.8417 73.9926 41.4592V33.7715H74.8774V41.4434C74.8774 41.7906 74.8809 42.077 74.8888 42.3034C74.8968 42.5308 74.9488 42.7379 75.0448 42.9265C75.2281 43.2781 75.518 43.4913 75.9146 43.5654C76.3111 43.6394 76.8178 43.6279 77.4329 43.531V44.3267H77.4347Z" fill="#221F1F"/>
<path d="M82.1426 44.5576C81.3539 44.5576 80.6728 44.3804 80.0973 44.0262C79.5228 43.6719 79.0769 43.1696 78.7623 42.5193C78.4468 41.869 78.2891 41.1005 78.2891 40.2131C78.2891 39.3258 78.445 38.5318 78.7588 37.8762C79.0716 37.2205 79.514 36.7173 80.0868 36.3657C80.6587 36.0141 81.339 35.8379 82.1277 35.8379C82.9163 35.8379 83.609 36.0203 84.1765 36.3851C84.744 36.75 85.1758 37.276 85.4736 37.9643C85.7715 38.6525 85.9125 39.4817 85.8975 40.4502H84.9819V40.1444C84.9564 39.012 84.7017 38.1511 84.2188 37.5589C83.7359 36.9676 83.0441 36.6715 82.1435 36.6715C81.2429 36.6715 80.4939 36.9791 79.9881 37.5933C79.4814 38.2075 79.2284 39.0764 79.2284 40.1982C79.2284 41.32 79.4814 42.1712 79.9881 42.7837C80.4939 43.3952 81.2077 43.7019 82.1285 43.7019C82.7648 43.7019 83.3199 43.553 83.7958 43.2542C84.2717 42.9555 84.6488 42.529 84.9291 41.9729L85.723 42.3245C85.3926 43.0383 84.9141 43.5891 84.2884 43.9768C83.6627 44.3646 82.9481 44.5584 82.1444 44.5584L82.1426 44.5576ZM78.8918 40.4493V39.6536H85.4005V40.4493H78.8918Z" fill="#221F1F"/>
<path d="M89.0342 44.327L86.5156 36.0664H87.4162L89.4845 42.8509L91.5527 36.0664H92.3995L94.4748 42.8509L96.5501 36.0664H97.4348L94.9172 44.327H94.0932L91.9792 37.4508L89.8581 44.327H89.0342Z" fill="#221F1F"/>
<path d="M100.731 44.5567C100.095 44.5567 99.5678 44.4448 99.1474 44.22C98.7271 43.9953 98.4134 43.6984 98.2054 43.3291C97.9966 42.9599 97.8926 42.5581 97.8926 42.1245C97.8926 41.6557 97.9904 41.2627 98.186 40.9463C98.3817 40.63 98.6443 40.3753 98.9721 40.1814C99.2999 39.9875 99.6629 39.8421 100.059 39.7452C100.512 39.643 101.001 39.5558 101.525 39.4817C102.049 39.4077 102.549 39.3425 103.025 39.287C103.501 39.2306 103.888 39.1821 104.189 39.1416L103.868 39.3328C103.888 38.4401 103.722 37.7766 103.368 37.3404C103.015 36.9042 102.393 36.6865 101.503 36.6865C100.877 36.6865 100.362 36.8284 99.9582 37.1113C99.5546 37.3941 99.2699 37.8312 99.1078 38.4234L98.2072 38.1714C98.3957 37.4214 98.7747 36.8451 99.3439 36.4424C99.9132 36.0397 100.644 35.8379 101.534 35.8379C102.292 35.8379 102.929 35.9859 103.445 36.2811C103.962 36.5772 104.321 36.9923 104.525 37.5281C104.611 37.7475 104.669 38.0039 104.7 38.2965C104.731 38.5899 104.746 38.8843 104.746 39.1804V44.3284H103.945V42.1562L104.243 42.2329C103.993 42.9775 103.558 43.5512 102.938 43.9539C102.317 44.3566 101.582 44.5584 100.732 44.5584L100.731 44.5567ZM100.777 43.7459C101.336 43.7459 101.827 43.6455 102.249 43.4437C102.671 43.2428 103.013 42.959 103.276 42.5951C103.538 42.2303 103.704 41.8011 103.776 41.3059C103.827 41.0309 103.854 40.7322 103.859 40.4105C103.865 40.0889 103.867 39.8518 103.867 39.6994L104.249 39.9444C103.918 39.9849 103.523 40.0281 103.062 40.0748C102.601 40.1206 102.132 40.177 101.654 40.2431C101.175 40.3092 100.743 40.3938 100.356 40.4951C100.118 40.5612 99.8771 40.6573 99.6356 40.7815C99.3942 40.9067 99.1933 41.0785 99.0329 41.2979C98.8725 41.5173 98.7923 41.7949 98.7923 42.1316C98.7923 42.3818 98.8549 42.6312 98.9791 42.8815C99.1034 43.1317 99.3113 43.3379 99.6013 43.501C99.8912 43.664 100.282 43.7459 100.777 43.7459Z" fill="#221F1F"/>
<path d="M107.477 47.999L109.079 43.6775L109.094 44.9623L105.484 36.0664H106.423L109.521 43.7921H109.033L111.849 36.0664H112.772L108.392 47.999H107.477Z" fill="#221F1F"/>
<path d="M116.289 36.869V36.0662H121.577V36.869H116.289ZM121.577 44.3267C121.14 44.4237 120.707 44.4607 120.28 44.4378C119.853 44.4148 119.473 44.3179 119.139 44.147C118.806 43.976 118.556 43.7125 118.387 43.3556C118.25 43.0648 118.173 42.7714 118.158 42.4762C118.143 42.1801 118.135 41.8417 118.135 41.4592V33.7715H119.02V41.4434C119.02 41.7906 119.023 42.077 119.031 42.3034C119.039 42.5308 119.091 42.7379 119.187 42.9265C119.371 43.2781 119.661 43.4913 120.057 43.5654C120.454 43.6394 120.96 43.6279 121.575 43.531V44.3267H121.577Z" fill="#221F1F"/>
<path d="M126.272 44.5576C125.453 44.5576 124.759 44.3716 124.189 43.9989C123.619 43.627 123.184 43.1115 122.884 42.4541C122.583 41.7967 122.434 41.0388 122.434 40.1823C122.434 39.3258 122.586 38.5617 122.892 37.907C123.197 37.2514 123.636 36.7429 124.208 36.3807C124.78 36.0185 125.469 35.8379 126.272 35.8379C127.076 35.8379 127.787 36.0229 128.359 36.3922C128.931 36.7623 129.366 37.2734 129.664 37.9255C129.962 38.5785 130.111 39.3302 130.111 40.1823C130.111 41.0344 129.961 41.8178 129.66 42.4735C129.36 43.1291 128.923 43.6402 128.348 44.0068C127.774 44.3743 127.082 44.5576 126.273 44.5576H126.272ZM126.272 43.701C127.244 43.701 127.97 43.375 128.451 42.722C128.932 42.069 129.171 41.223 129.171 40.1823C129.171 39.1416 128.93 38.2753 128.446 37.6426C127.963 37.0108 127.238 36.6944 126.271 36.6944C125.615 36.6944 125.074 36.8434 124.646 37.1421C124.219 37.4408 123.9 37.8506 123.688 38.374C123.477 38.8966 123.372 39.5002 123.372 40.1832C123.372 41.2442 123.617 42.0954 124.109 42.7378C124.6 43.3802 125.32 43.7019 126.272 43.7019V43.701Z" fill="#221F1F"/>
<path d="M134.078 44.3269L137.97 33.3125H139.061L142.952 44.3269H142.021L138.282 33.7707H138.725L135.009 44.3269H134.078ZM135.688 41.5581V40.7244H141.335V41.5581H135.688Z" fill="#221F1F"/>
<path d="M144.324 44.3272V36.0667H145.125V37.9252H145.202V44.3272H144.324ZM149.231 44.3272L149.246 38.8584C149.246 38.1755 149.06 37.6335 148.689 37.2325C148.318 36.8325 147.834 36.6324 147.239 36.6324C146.644 36.6324 146.143 36.8404 145.767 37.2555C145.39 37.6714 145.202 38.2257 145.202 38.9192L144.591 38.6134C144.591 38.0776 144.713 37.6027 144.958 37.1867C145.202 36.7717 145.537 36.4439 145.962 36.2042C146.386 35.9645 146.874 35.8446 147.423 35.8446C147.916 35.8446 148.366 35.9495 148.773 36.1583C149.181 36.3672 149.506 36.6827 149.75 37.103C149.994 37.5234 150.116 38.0503 150.116 38.6822L150.101 44.3272H149.232H149.231ZM154.13 44.3272L154.145 38.7738C154.145 38.1058 153.955 37.5815 153.576 37.2017C153.197 36.8219 152.726 36.6316 152.161 36.6316C151.84 36.6316 151.524 36.7056 151.211 36.8536C150.898 37.0017 150.637 37.2414 150.428 37.5727C150.22 37.904 150.116 38.3526 150.116 38.9192L149.498 38.8196C149.478 38.2178 149.588 37.6943 149.83 37.2475C150.072 36.8016 150.407 36.4562 150.837 36.2112C151.267 35.9662 151.756 35.8438 152.306 35.8438C153.115 35.8438 153.77 36.094 154.271 36.5937C154.773 37.0933 155.023 37.7763 155.023 38.6434L155.008 44.3264H154.13L154.13 44.3272Z" fill="#221F1F"/>
<path d="M160.379 44.5576C159.59 44.5576 158.909 44.3804 158.334 44.0262C157.759 43.6719 157.313 43.1696 156.999 42.5193C156.683 41.869 156.525 41.1005 156.525 40.2131C156.525 39.3258 156.681 38.5318 156.995 37.8762C157.309 37.2205 157.75 36.7173 158.323 36.3657C158.895 36.0141 159.575 35.8379 160.364 35.8379C161.153 35.8379 161.845 36.0203 162.413 36.3851C162.98 36.75 163.412 37.276 163.71 37.9643C164.008 38.6525 164.149 39.4817 164.134 40.4502H163.218V40.1444C163.193 39.012 162.938 38.1511 162.455 37.5589C161.972 36.9676 161.28 36.6715 160.38 36.6715C159.479 36.6715 158.73 36.9791 158.224 37.5933C157.718 38.2075 157.465 39.0764 157.465 40.1982C157.465 41.32 157.718 42.1712 158.224 42.7837C158.73 43.3952 159.444 43.7019 160.365 43.7019C161.001 43.7019 161.556 43.553 162.032 43.2542C162.508 42.9555 162.885 42.529 163.165 41.9729L163.959 42.3245C163.629 43.0383 163.15 43.5891 162.525 43.9768C161.899 44.3646 161.184 44.5584 160.381 44.5584L160.379 44.5576ZM157.129 40.4493V39.6536H163.638V40.4493H157.129Z" fill="#221F1F"/>
<path d="M165.82 44.3267V36.0662H166.621V38.0471L166.423 37.7872C166.515 37.5528 166.63 37.3351 166.77 37.1333C166.91 36.9324 167.054 36.7676 167.201 36.6398C167.42 36.4363 167.677 36.2812 167.972 36.1772C168.267 36.0723 168.564 36.0115 168.865 35.9939C169.165 35.9763 169.438 36.0001 169.682 36.0662V36.8998C169.357 36.8231 169.01 36.8081 168.644 36.854C168.277 36.8998 167.934 37.0584 167.614 37.3281C167.333 37.573 167.13 37.8568 167.003 38.1811C166.876 38.5054 166.794 38.8438 166.759 39.1989C166.724 39.5531 166.705 39.8986 166.705 40.2352V44.3276H165.82V44.3267Z" fill="#221F1F"/>
<path d="M171.283 34.3998V33.2754H172.161V34.3998H171.283ZM171.283 44.3276V36.0671H172.161V44.3276H171.283Z" fill="#221F1F"/>
<path d="M177.815 44.5584C176.991 44.5584 176.297 44.3734 175.732 44.0041C175.167 43.634 174.739 43.122 174.446 42.4664C174.153 41.8117 174.002 41.0556 173.992 40.1982C174.003 39.3258 174.156 38.5626 174.454 37.907C174.752 37.2514 175.183 36.7429 175.748 36.3807C176.312 36.0185 177.004 35.8379 177.823 35.8379C178.642 35.8379 179.324 36.03 179.932 36.4151C180.541 36.8002 180.961 37.3289 181.195 38.0022L180.34 38.3159C180.132 37.8012 179.804 37.4021 179.356 37.1192C178.909 36.8363 178.395 36.6944 177.815 36.6944C177.164 36.6944 176.627 36.8434 176.205 37.1421C175.783 37.4408 175.467 37.8524 175.259 38.3776C175.05 38.9028 174.94 39.5099 174.931 40.1982C174.946 41.2539 175.194 42.1016 175.674 42.7414C176.156 43.3811 176.868 43.701 177.815 43.701C178.4 43.701 178.908 43.5662 179.338 43.2956C179.768 43.0251 180.096 42.633 180.326 42.1175L181.195 42.4162C180.875 43.115 180.427 43.6464 179.852 44.0112C179.277 44.376 178.598 44.5584 177.815 44.5584Z" fill="#221F1F"/>
<path d="M185.147 44.5567C184.511 44.5567 183.983 44.4448 183.563 44.22C183.144 43.9953 182.829 43.6984 182.621 43.3291C182.413 42.9599 182.309 42.5581 182.309 42.1245C182.309 41.6557 182.406 41.2627 182.602 40.9463C182.798 40.63 183.06 40.3753 183.388 40.1814C183.716 39.9875 184.079 39.8421 184.475 39.7452C184.928 39.643 185.417 39.5558 185.94 39.4817C186.464 39.4077 186.964 39.3425 187.44 39.287C187.916 39.2306 188.304 39.1821 188.604 39.1416L188.283 39.3328C188.304 38.4401 188.137 37.7766 187.784 37.3404C187.43 36.9042 186.808 36.6865 185.918 36.6865C185.292 36.6865 184.777 36.8284 184.372 37.1113C183.968 37.3941 183.684 37.8312 183.522 38.4234L182.621 38.1714C182.809 37.4214 183.189 36.8451 183.758 36.4424C184.327 36.0397 185.058 35.8379 185.948 35.8379C186.706 35.8379 187.343 35.9859 187.859 36.2811C188.376 36.5772 188.735 36.9923 188.939 37.5281C189.025 37.7475 189.084 38.0039 189.114 38.2965C189.145 38.5899 189.16 38.8843 189.16 39.1804V44.3284H188.359V42.1562L188.657 42.2329C188.408 42.9775 187.973 43.5512 187.352 43.9539C186.731 44.3566 185.996 44.5584 185.146 44.5584L185.147 44.5567ZM185.193 43.7459C185.752 43.7459 186.243 43.6455 186.665 43.4437C187.087 43.2428 187.429 42.959 187.692 42.5951C187.954 42.2303 188.12 41.8011 188.192 41.3059C188.243 41.0309 188.27 40.7322 188.275 40.4105C188.281 40.0889 188.283 39.8518 188.283 39.6994L188.665 39.9444C188.334 39.9849 187.939 40.0281 187.479 40.0748C187.018 40.1206 186.549 40.177 186.071 40.2431C185.592 40.3092 185.16 40.3938 184.773 40.4951C184.535 40.5612 184.294 40.6573 184.053 40.7815C183.811 40.9067 183.61 41.0785 183.45 41.2979C183.289 41.5173 183.209 41.7949 183.209 42.1316C183.209 42.3818 183.272 42.6312 183.396 42.8815C183.52 43.1317 183.728 43.3379 184.018 43.501C184.308 43.664 184.699 43.7459 185.193 43.7459Z" fill="#221F1F"/>
</svg>
