<svg width="229" height="58" viewBox="0 0 229 58" fill="none" xmlns="http://www.w3.org/2000/svg">
<path d="M56.5796 0.596768C47.8173 9.61568 39.1402 18.5483 30.4428 27.5023C39.1583 36.2848 47.829 45.0215 56.5796 53.8381H56.0631C51.0894 53.8403 46.1168 53.8445 41.1431 53.836C40.9695 53.836 40.7512 53.7498 40.6298 53.6273C37.1202 50.1039 33.6223 46.5698 30.1191 43.041C27.1941 40.0936 24.2659 37.1494 21.3323 34.2106C21.2312 34.1094 21.0597 34.0232 20.9203 34.0221C17.9856 34.0136 15.0521 34.0168 12.1175 34.02C12.0089 34.02 11.9013 34.0338 11.7725 34.0434V42.8025H12.2016C14.4026 42.8025 16.6035 42.7982 18.8034 42.8099C18.9674 42.8099 19.1761 42.8824 19.289 42.9952C22.6335 46.3664 25.9685 49.7472 29.3045 53.1279C29.51 53.3356 29.7038 53.5549 29.9562 53.8254H0V0.722415H29.7688C29.7038 0.80334 29.6453 0.888525 29.575 0.961996C26.2123 4.41942 22.8507 7.87898 19.4742 11.3236C19.3252 11.4759 19.043 11.5675 18.8205 11.5707C16.7441 11.593 14.6677 11.5888 12.5913 11.593C12.3315 11.593 12.0706 11.593 11.781 11.593V23.5167C11.8854 23.5252 11.9801 23.5401 12.076 23.5401C14.3515 23.538 16.627 23.538 18.9014 23.5199C19.0717 23.5189 19.2847 23.423 19.404 23.2984C24.8792 17.5953 30.3449 11.8837 35.8137 6.17422C37.5163 4.39706 39.2232 2.62416 40.9397 0.859775C41.06 0.736258 41.2698 0.63936 41.4401 0.636166C42.8819 0.611675 44.3247 0.608481 45.7664 0.606351C49.2473 0.601027 52.7292 0.598898 56.2101 0.595703H56.5796" fill="white"/>
<path d="M64.9395 32.9774V1.0918H85.1644V5.46389H70.1325V13.9823H83.1146V18.3097H70.1325V28.6043H85.1644V32.9774H64.9395Z" fill="white"/>
<path d="M88.3516 32.9774V1.0918H93.4988V19.9495L101.607 10.3844H108.167L98.2362 21.3615L108.714 32.9774H102.063L93.4988 22.6829V32.9774H88.3516Z" fill="white"/>
<path d="M112.815 33.4336C111.843 33.4336 111.031 33.0992 110.378 32.4316C109.724 31.7639 109.398 30.959 109.398 30.0177C109.398 29.0764 109.724 28.2799 110.378 27.6261C111.031 26.9734 111.843 26.6465 112.815 26.6465C113.788 26.6465 114.553 26.9734 115.207 27.6261C115.86 28.2799 116.187 29.0764 116.187 30.0177C116.187 30.959 115.86 31.7639 115.207 32.4316C114.553 33.0992 113.757 33.4336 112.815 33.4336Z" fill="white"/>
<path d="M121.422 6.78708C120.48 6.78708 119.675 6.45379 119.008 5.78509C118.339 5.11746 118.006 4.31247 118.006 3.37118C118.006 2.42989 118.34 1.63341 119.008 0.979622C119.675 0.326896 120.48 0 121.422 0C122.363 0 123.168 0.326896 123.836 0.979622C124.503 1.63341 124.838 2.42989 124.838 3.37118C124.838 4.31247 124.503 5.11746 123.836 5.78509C123.167 6.45379 122.362 6.78708 121.422 6.78708ZM118.826 10.3861H124.019V32.9792H118.826V10.3861Z" fill="white"/>
<path d="M127.48 32.9802V10.3872H132.491L132.583 13.4847C133.342 12.3006 134.389 11.3966 135.726 10.7737C137.063 10.1518 138.46 9.83984 139.917 9.83984C142.559 9.83984 144.701 10.6757 146.34 12.3453C147.98 14.016 148.8 16.4757 148.8 19.7244V32.9802H143.699V20.3623C143.699 18.4488 143.243 16.9464 142.332 15.8528C141.421 14.7592 140.085 14.213 138.323 14.213C136.562 14.213 135.173 14.7976 134.156 15.9667C133.138 17.1359 132.63 18.7225 132.63 20.7264V32.9802H127.483H127.48Z" fill="white"/>
<path d="M161.598 33.5237C159.35 33.5237 157.43 32.9838 155.835 31.9062C154.241 30.8286 153.011 29.3933 152.146 27.6012C151.28 25.8102 150.848 23.8052 150.848 21.5883C150.848 19.3713 151.28 17.4206 152.146 15.6434C153.011 13.8673 154.249 12.4554 155.859 11.4076C157.468 10.3599 159.381 9.83599 161.598 9.83599C163.176 9.83599 164.65 10.1629 166.016 10.8156C167.382 11.4694 168.49 12.4181 169.341 13.6629V1.0918H174.534V32.9774H169.479L169.342 29.5615C168.614 30.7765 167.566 31.7412 166.199 32.4535C164.833 33.167 163.298 33.5237 161.598 33.5237ZM162.736 29.0142C164.102 29.0142 165.272 28.6958 166.244 28.058C167.216 27.4202 167.975 26.5481 168.521 25.4386C169.068 24.3301 169.341 23.0779 169.341 21.6809C169.341 20.072 169.029 18.7197 168.407 17.6272C167.784 16.5336 166.965 15.7137 165.948 15.1675C164.93 14.6212 163.845 14.3476 162.69 14.3476C161.415 14.3476 160.283 14.6596 159.297 15.2814C158.31 15.9043 157.536 16.7551 156.973 17.8327C156.411 18.9113 156.131 20.1785 156.131 21.6362C156.131 23.0939 156.42 24.3312 156.997 25.4397C157.573 26.5481 158.356 27.4213 159.343 28.0591C160.329 28.6969 161.461 29.0153 162.736 29.0153" fill="white"/>
<path d="M190.477 33.5237C187.592 33.5237 185.246 32.9476 183.44 31.7923C181.633 30.6391 180.312 29.0973 179.477 27.1689C178.641 25.2405 178.225 23.1535 178.225 20.9057V1.0918H183.372V20.9526C183.372 23.6561 184.017 25.6441 185.308 26.9197C186.598 28.1954 188.352 28.8332 190.569 28.8332C192.786 28.8332 194.539 28.1954 195.83 26.9197C197.121 25.6441 197.766 23.6561 197.766 20.9526V1.0918H202.913V20.9068C202.913 23.3058 202.549 25.3108 201.82 26.9197C201.091 28.5297 200.112 29.8203 198.882 30.7914C197.652 31.7635 196.301 32.4621 194.828 32.8869C193.354 33.3118 191.905 33.5247 190.478 33.5247" fill="white"/>
<path d="M217.854 33.5252C215.668 33.5252 213.678 33.1376 211.887 32.3635C210.095 31.5893 208.676 30.45 207.628 28.9476C206.58 27.4441 206.04 25.5849 206.012 23.368H211.433C211.462 25.0695 212.055 26.458 213.209 27.5356C214.362 28.6143 215.896 29.1531 217.81 29.1531C219.51 29.1531 220.876 28.7591 221.909 27.969C222.941 27.18 223.459 26.0715 223.459 24.6436C223.459 23.8237 223.322 23.1337 223.049 22.5715C222.775 22.0104 222.32 21.5088 221.682 21.068C221.045 20.6282 220.194 20.2023 219.131 19.7924C218.067 19.3824 216.717 18.9043 215.077 18.357C213.164 17.7192 211.6 16.9834 210.386 16.1475C209.171 15.3127 208.283 14.3416 207.721 13.2321C207.159 12.1236 206.878 10.8863 206.878 9.51911C206.878 7.57584 207.341 5.93604 208.268 4.5997C209.194 3.26337 210.454 2.25394 212.049 1.57033C213.643 0.886725 215.412 0.544922 217.356 0.544922C219.301 0.544922 221.106 0.894178 222.686 1.59269C224.265 2.2912 225.539 3.31661 226.512 4.66785C227.484 6.01909 227.985 7.66741 228.016 9.61068H222.505C222.505 8.30523 222.018 7.19677 221.047 6.28529C220.075 5.37382 218.784 4.91915 217.175 4.91915C215.809 4.88933 214.647 5.23859 213.69 5.96692C212.734 6.69631 212.255 7.75898 212.255 9.15601C212.255 10.1282 212.566 10.9321 213.189 11.5699C213.81 12.2077 214.698 12.77 215.853 13.2555C217.006 13.7411 218.404 14.2735 220.044 14.8495C221.046 15.1839 222.071 15.5779 223.119 16.0336C224.167 16.4893 225.123 17.0739 225.989 17.7873C226.854 18.5008 227.56 19.3813 228.106 20.4291C228.653 21.4769 228.926 22.7749 228.926 24.3242C228.926 26.2376 228.432 27.8849 227.446 29.267C226.459 30.6491 225.13 31.7043 223.461 32.4327C221.79 33.1621 219.922 33.5262 217.858 33.5262" fill="white"/>
<path d="M70.5978 53.8407C69.6331 53.8407 68.777 53.6746 68.0295 53.3413C67.2831 53.0091 66.6538 52.5374 66.1437 51.9272C65.6337 51.3171 65.2461 50.5867 64.982 49.7369C64.718 48.8862 64.5859 47.9438 64.5859 46.9088C64.5859 45.5352 64.8181 44.3288 65.2823 43.2906C65.7466 42.2524 66.4238 41.4432 67.315 40.865C68.2063 40.2857 69.3009 39.9961 70.5978 39.9961C71.8948 39.9961 73.0394 40.3102 73.903 40.9384C74.7666 41.5667 75.3735 42.393 75.7238 43.4152L74.6728 43.7389C74.3651 42.919 73.8657 42.2652 73.1747 41.7743C72.4836 41.2834 71.6328 41.0364 70.6255 41.03C69.5373 41.03 68.6322 41.2781 67.9103 41.7743C67.1883 42.2705 66.6453 42.9616 66.2832 43.8496C65.9201 44.7366 65.7327 45.7567 65.721 46.9088C65.7082 48.0609 65.885 49.0789 66.2513 49.9637C66.6165 50.8486 67.166 51.5418 67.8975 52.0433C68.629 52.5459 69.5383 52.7961 70.6266 52.7961C71.6658 52.8025 72.5155 52.5991 73.1757 52.186C73.8359 51.7729 74.3279 51.1925 74.6505 50.444C74.9731 49.6954 75.1467 48.8191 75.1712 47.8139H71.8703V46.8439H76.2775C76.2956 46.9983 76.3063 47.1484 76.3095 47.2964C76.3126 47.4444 76.3137 47.5584 76.3137 47.6382C76.3137 48.8148 76.1093 49.8722 75.7004 50.8081C75.2915 51.7452 74.6643 52.4841 73.8199 53.0261C72.9745 53.5681 71.9001 53.8396 70.5978 53.8396V53.8407Z" fill="white"/>
<path d="M81.0352 53.8399C80.2664 53.8399 79.6297 53.7047 79.1218 53.4331C78.6149 53.1616 78.2348 52.8028 77.9835 52.3566C77.7311 51.9104 77.6055 51.4249 77.6055 50.901C77.6055 50.3345 77.7237 49.8596 77.96 49.4774C78.1964 49.0951 78.5137 48.7874 78.9099 48.5531C79.306 48.3189 79.7447 48.1432 80.2238 48.026C80.7711 47.9025 81.361 47.7971 81.9946 47.7077C82.6282 47.6182 83.2319 47.5394 83.8069 47.4723C84.3819 47.4042 84.8504 47.3456 85.2135 47.2966L84.8259 47.5277C84.8504 46.4491 84.6492 45.6473 84.2222 45.1202C83.7952 44.5931 83.0434 44.3301 81.968 44.3301C81.212 44.3301 80.5891 44.5015 80.1014 44.8433C79.6137 45.1851 79.2698 45.7133 79.0738 46.4288L77.9856 46.1243C78.2124 45.2181 78.6713 44.5218 79.3592 44.0351C80.0471 43.5485 80.9298 43.3047 82.0052 43.3047C82.921 43.3047 83.6908 43.4836 84.3148 43.8403C84.9388 44.1981 85.3732 44.6996 85.6192 45.347C85.7235 45.6121 85.7949 45.922 85.8311 46.2755C85.8684 46.6301 85.8865 46.9857 85.8865 47.3435V53.5641H84.9186V50.9393L85.2785 51.032C84.9771 51.9317 84.4511 52.6249 83.7015 53.1116C82.9519 53.5982 82.0638 53.842 81.0363 53.842L81.0352 53.8399ZM81.0906 52.8603C81.7667 52.8603 82.3598 52.7389 82.8699 52.495C83.3799 52.2523 83.7931 51.9094 84.1104 51.4696C84.4266 51.0288 84.6279 50.5102 84.7141 49.9118C84.7759 49.5796 84.8089 49.2186 84.8153 48.83C84.8217 48.4413 84.8249 48.1549 84.8249 47.9707L85.2859 48.2667C84.8866 48.3157 84.4085 48.3678 83.8527 48.4243C83.2958 48.4796 82.7293 48.5478 82.1511 48.6277C81.5729 48.7075 81.0512 48.8097 80.5837 48.9322C80.2952 49.012 80.0045 49.1281 79.7127 49.2782C79.421 49.4295 79.1782 49.6371 78.9844 49.9022C78.7906 50.1674 78.6937 50.5028 78.6937 50.9095C78.6937 51.2119 78.7693 51.5133 78.9194 51.8157C79.0696 52.1181 79.3209 52.3673 79.6712 52.5642C80.0215 52.7612 80.4943 52.8603 81.0906 52.8603Z" fill="white"/>
<path d="M87.1758 44.5514V43.5814H93.5657V44.5514H87.1758ZM93.5657 53.5628C93.0365 53.68 92.5147 53.7247 91.9983 53.697C91.4819 53.6693 91.0229 53.5522 90.6194 53.3456C90.2169 53.1391 89.9145 52.8207 89.7111 52.3894C89.545 52.038 89.4534 51.6835 89.4342 51.3268C89.4161 50.969 89.4065 50.5601 89.4065 50.098V40.8086H90.4756V50.0788C90.4756 50.4983 90.4799 50.8444 90.4895 51.118C90.499 51.3928 90.5619 51.643 90.6779 51.8709C90.8994 52.2957 91.2497 52.5534 91.7289 52.6429C92.2081 52.7323 92.8203 52.7185 93.5636 52.6013V53.5628H93.5657Z" fill="white"/>
<path d="M99.2541 53.8409C98.3011 53.8409 97.478 53.6269 96.7826 53.1989C96.0884 52.7708 95.5496 52.1639 95.1695 51.378C94.7883 50.5922 94.5977 49.6637 94.5977 48.5915C94.5977 47.5192 94.7861 46.5598 95.1652 45.7676C95.5432 44.9754 96.0777 44.3674 96.7699 43.9425C97.4609 43.5176 98.283 43.3047 99.236 43.3047C100.189 43.3047 101.026 43.5251 101.712 43.9659C102.397 44.4068 102.919 45.0425 103.279 45.8741C103.639 46.7057 103.809 47.7077 103.791 48.8779H102.685V48.5084C102.654 47.1401 102.346 46.0998 101.763 45.3843C101.179 44.6698 100.343 44.312 99.2551 44.312C98.1669 44.312 97.2618 44.6836 96.6506 45.4258C96.0383 46.1679 95.7327 47.2179 95.7327 48.5734C95.7327 49.9288 96.0383 50.9575 96.6506 51.6975C97.2618 52.4365 98.1243 52.807 99.237 52.807C100.006 52.807 100.677 52.6271 101.252 52.2661C101.827 51.9051 102.282 51.3898 102.621 50.7179L103.58 51.1427C103.181 52.0052 102.603 52.6707 101.847 53.1392C101.091 53.6078 100.227 53.842 99.2562 53.842L99.2541 53.8409ZM95.326 48.8768V47.9153H103.191V48.8768H95.326Z" fill="white"/>
<path d="M107.582 53.5635L104.539 43.582H105.627L108.126 51.78L110.625 43.582H111.649L114.156 51.78L116.664 43.582H117.733L114.691 53.5635H113.695L111.141 45.2548L108.578 53.5635H107.582Z" fill="white"/>
<path d="M121.715 53.8399C120.946 53.8399 120.309 53.7047 119.801 53.4331C119.294 53.1616 118.914 52.8028 118.663 52.3566C118.411 51.9104 118.285 51.4249 118.285 50.901C118.285 50.3345 118.403 49.8596 118.64 49.4774C118.876 49.0951 119.193 48.7874 119.59 48.5531C119.986 48.3189 120.424 48.1432 120.904 48.026C121.451 47.9025 122.041 47.7971 122.674 47.7077C123.308 47.6182 123.912 47.5394 124.487 47.4723C125.062 47.4042 125.53 47.3456 125.893 47.2966L125.506 47.5277C125.53 46.4491 125.329 45.6473 124.902 45.1202C124.475 44.5931 123.723 44.3301 122.648 44.3301C121.892 44.3301 121.269 44.5015 120.781 44.8433C120.293 45.1851 119.949 45.7133 119.754 46.4288L118.665 46.1243C118.893 45.2181 119.351 44.5218 120.039 44.0351C120.727 43.5485 121.609 43.3047 122.685 43.3047C123.601 43.3047 124.371 43.4836 124.995 43.8403C125.618 44.1981 126.053 44.6996 126.299 45.347C126.403 45.6121 126.474 45.922 126.511 46.2755C126.548 46.6301 126.566 46.9857 126.566 47.3435V53.5641H125.598V50.9393L125.958 51.032C125.657 51.9317 125.131 52.6249 124.381 53.1116C123.632 53.5982 122.743 53.842 121.716 53.842L121.715 53.8399ZM121.77 52.8603C122.446 52.8603 123.04 52.7389 123.55 52.495C124.06 52.2523 124.473 51.9094 124.79 51.4696C125.106 51.0288 125.308 50.5102 125.394 49.9118C125.456 49.5796 125.489 49.2186 125.495 48.83C125.501 48.4413 125.505 48.1549 125.505 47.9707L125.966 48.2667C125.566 48.3157 125.088 48.3678 124.531 48.4243C123.974 48.4796 123.408 48.5478 122.83 48.6277C122.252 48.7075 121.73 48.8097 121.262 48.9322C120.974 49.012 120.683 49.1281 120.391 49.2782C120.1 49.4295 119.857 49.6371 119.663 49.9022C119.469 50.1674 119.372 50.5028 119.372 50.9095C119.372 51.2119 119.448 51.5133 119.598 51.8157C119.748 52.1181 119.999 52.3673 120.35 52.5642C120.7 52.7612 121.173 52.8603 121.77 52.8603Z" fill="white"/>
<path d="M129.867 58.0006L131.802 52.7788L131.82 54.3312L127.459 43.582H128.593L132.337 52.9172H131.747L135.149 43.582H136.265L130.973 58.0006H129.867Z" fill="white"/>
<path d="M140.516 44.5514V43.5814H146.906V44.5514H140.516ZM146.906 53.5628C146.377 53.68 145.855 53.7247 145.338 53.697C144.822 53.6693 144.363 53.5522 143.959 53.3456C143.557 53.1391 143.254 52.8207 143.051 52.3894C142.885 52.038 142.792 51.6835 142.774 51.3268C142.756 50.969 142.746 50.5601 142.746 50.098V40.8086H143.815V50.0788C143.815 50.4983 143.82 50.8444 143.829 51.118C143.839 51.3928 143.902 51.643 144.018 51.8709C144.239 52.2957 144.59 52.5534 145.069 52.6429C145.548 52.7323 146.16 52.7185 146.903 52.6013V53.5628H146.906Z" fill="white"/>
<path d="M152.578 53.8409C151.587 53.8409 150.749 53.6163 150.061 53.1659C149.372 52.7165 148.847 52.0936 148.484 51.2993C148.12 50.5049 147.939 49.5892 147.939 48.5542C147.939 47.5192 148.124 46.596 148.493 45.8049C148.862 45.0126 149.392 44.3982 150.084 43.9606C150.775 43.523 151.607 43.3047 152.578 43.3047C153.549 43.3047 154.408 43.5283 155.099 43.9745C155.79 44.4217 156.316 45.0393 156.676 45.8272C157.036 46.6162 157.216 47.5245 157.216 48.5542C157.216 49.5838 157.035 50.5305 156.672 51.3227C156.309 52.1149 155.781 52.7325 155.086 53.1754C154.392 53.6195 153.556 53.8409 152.579 53.8409H152.578ZM152.578 52.806C153.752 52.806 154.63 52.412 155.21 51.623C155.791 50.8339 156.081 49.8117 156.081 48.5542C156.081 47.2966 155.789 46.2499 155.205 45.4854C154.621 44.7219 153.745 44.3397 152.577 44.3397C151.783 44.3397 151.13 44.5196 150.613 44.8806C150.097 45.2416 149.711 45.7367 149.456 46.3692C149.2 47.0006 149.073 47.73 149.073 48.5552C149.073 49.8373 149.369 50.8659 149.964 51.6421C150.557 52.4184 151.428 52.807 152.578 52.807V52.806Z" fill="white"/>
<path d="M162.008 53.5629L166.71 40.2539H168.028L172.73 53.5629H171.606L167.088 40.8076H167.623L163.132 53.5629H162.008ZM163.953 50.2173V49.21H170.776V50.2173H163.953Z" fill="white"/>
<path d="M174.391 53.5634V43.5819H175.359V45.8276H175.451V53.5634H174.391ZM180.319 53.5634L180.338 46.9552C180.338 46.13 180.113 45.4751 179.665 44.9906C179.216 44.5072 178.632 44.2655 177.913 44.2655C177.194 44.2655 176.588 44.5168 176.134 45.0183C175.679 45.5209 175.451 46.1907 175.451 47.0287L174.713 46.6592C174.713 46.0118 174.86 45.4379 175.156 44.9353C175.451 44.4337 175.856 44.0376 176.369 43.748C176.882 43.4584 177.471 43.3136 178.134 43.3136C178.731 43.3136 179.275 43.4403 179.767 43.6926C180.259 43.945 180.652 44.3262 180.947 44.8341C181.242 45.342 181.39 45.9788 181.39 46.7422L181.371 53.5634H180.321H180.319ZM186.239 53.5634L186.257 46.853C186.257 46.0459 186.028 45.4123 185.57 44.9534C185.112 44.4944 184.542 44.2644 183.86 44.2644C183.472 44.2644 183.09 44.3539 182.712 44.5328C182.334 44.7117 182.019 45.0013 181.767 45.4016C181.514 45.802 181.389 46.344 181.389 47.0287L180.642 46.9083C180.618 46.1811 180.751 45.5486 181.044 45.0087C181.335 44.4699 181.741 44.0525 182.261 43.7565C182.78 43.4605 183.371 43.3125 184.036 43.3125C185.013 43.3125 185.804 43.6149 186.41 44.2186C187.016 44.8224 187.318 45.6476 187.318 46.6954L187.3 53.5623H186.24L186.239 53.5634Z" fill="white"/>
<path d="M193.791 53.8409C192.838 53.8409 192.015 53.6269 191.32 53.1989C190.625 52.7708 190.087 52.1639 189.707 51.378C189.325 50.5922 189.135 49.6637 189.135 48.5915C189.135 47.5192 189.323 46.5598 189.702 45.7676C190.081 44.9754 190.615 44.3674 191.307 43.9425C191.998 43.5176 192.82 43.3047 193.773 43.3047C194.726 43.3047 195.563 43.5251 196.249 43.9659C196.934 44.4068 197.456 45.0425 197.816 45.8741C198.176 46.7057 198.346 47.7077 198.328 48.8779H197.222V48.5084C197.191 47.1401 196.883 46.0998 196.3 45.3843C195.716 44.6698 194.88 44.312 193.792 44.312C192.704 44.312 191.799 44.6836 191.188 45.4258C190.575 46.1679 190.27 47.2179 190.27 48.5734C190.27 49.9288 190.575 50.9575 191.188 51.6975C191.799 52.4365 192.661 52.807 193.774 52.807C194.543 52.807 195.214 52.6271 195.789 52.2661C196.364 51.9051 196.819 51.3898 197.158 50.7179L198.117 51.1427C197.718 52.0052 197.14 52.6707 196.384 53.1392C195.628 53.6078 194.764 53.842 193.793 53.842L193.791 53.8409ZM189.864 48.8768V47.9153H197.729V48.8768H189.864Z" fill="white"/>
<path d="M200.363 53.5619V43.5804H201.331V45.9741L201.092 45.66C201.202 45.3768 201.342 45.1137 201.511 44.8699C201.68 44.6271 201.854 44.428 202.032 44.2736C202.296 44.0276 202.607 43.8402 202.964 43.7146C203.32 43.5879 203.679 43.5144 204.042 43.4931C204.405 43.4718 204.734 43.5006 205.029 43.5804V44.5877C204.636 44.4951 204.218 44.477 203.775 44.5324C203.332 44.5877 202.918 44.7794 202.53 45.1052C202.192 45.4012 201.946 45.7441 201.792 46.136C201.639 46.5278 201.54 46.9367 201.497 47.3658C201.455 47.7939 201.432 48.2113 201.432 48.618V53.563H200.363V53.5619Z" fill="white"/>
<path d="M206.967 41.5677V40.209H208.027V41.5677H206.967ZM206.967 53.5638V43.5823H208.027V53.5638H206.967Z" fill="white"/>
<path d="M214.857 53.8401C213.862 53.8401 213.023 53.6164 212.34 53.1703C211.658 52.7231 211.14 52.1044 210.787 51.3122C210.433 50.5211 210.25 49.6075 210.238 48.5714C210.251 47.5172 210.436 46.5951 210.796 45.8029C211.156 45.0107 211.677 44.3963 212.359 43.9587C213.042 43.521 213.878 43.3027 214.867 43.3027C215.856 43.3027 216.681 43.5349 217.416 44.0002C218.151 44.4655 218.659 45.1044 218.942 45.9179L217.909 46.297C217.657 45.6751 217.261 45.1928 216.72 44.851C216.179 44.5092 215.558 44.3377 214.857 44.3377C214.071 44.3377 213.422 44.5177 212.912 44.8786C212.402 45.2396 212.021 45.7369 211.768 46.3715C211.516 47.0061 211.384 47.7398 211.372 48.5714C211.39 49.847 211.691 50.8714 212.271 51.6444C212.852 52.4175 213.714 52.804 214.857 52.804C215.564 52.804 216.178 52.6411 216.697 52.3142C217.217 51.9873 217.614 51.5135 217.891 50.8905L218.942 51.2515C218.554 52.0959 218.013 52.738 217.319 53.1788C216.624 53.6196 215.804 53.8401 214.857 53.8401Z" fill="white"/>
<path d="M223.719 53.8399C222.95 53.8399 222.312 53.7047 221.805 53.4331C221.298 53.1616 220.918 52.8028 220.667 52.3566C220.415 51.9104 220.289 51.4249 220.289 50.901C220.289 50.3345 220.407 49.8596 220.644 49.4774C220.88 49.0951 221.197 48.7874 221.593 48.5531C221.99 48.3189 222.428 48.1432 222.907 48.026C223.455 47.9025 224.045 47.7971 224.677 47.7077C225.311 47.6182 225.914 47.5394 226.489 47.4723C227.064 47.4042 227.533 47.3456 227.896 47.2966L227.508 47.5277C227.533 46.4491 227.332 45.6473 226.905 45.1202C226.478 44.5931 225.726 44.3301 224.651 44.3301C223.894 44.3301 223.272 44.5015 222.783 44.8433C222.294 45.1851 221.951 45.7133 221.755 46.4288L220.667 46.1243C220.894 45.2181 221.353 44.5218 222.041 44.0351C222.729 43.5485 223.611 43.3047 224.687 43.3047C225.602 43.3047 226.372 43.4836 226.996 43.8403C227.62 44.1981 228.055 44.6996 228.301 45.347C228.405 45.6121 228.476 45.922 228.513 46.2755C228.55 46.6301 228.568 46.9857 228.568 47.3435V53.5641H227.6V50.9393L227.96 51.032C227.659 51.9317 227.134 52.6249 226.383 53.1116C225.633 53.5982 224.744 53.842 223.718 53.842L223.719 53.8399ZM223.774 52.8603C224.45 52.8603 225.043 52.7389 225.553 52.495C226.064 52.2523 226.477 51.9094 226.794 51.4696C227.11 51.0288 227.311 50.5102 227.398 49.9118C227.459 49.5796 227.492 49.2186 227.499 48.83C227.505 48.4413 227.508 48.1549 227.508 47.9707L227.969 48.2667C227.57 48.3157 227.092 48.3678 226.536 48.4243C225.979 48.4796 225.413 48.5478 224.835 48.6277C224.257 48.7075 223.735 48.8097 223.267 48.9322C222.979 49.012 222.688 49.1281 222.396 49.2782C222.105 49.4295 221.862 49.6371 221.668 49.9022C221.474 50.1674 221.377 50.5028 221.377 50.9095C221.377 51.2119 221.453 51.5133 221.603 51.8157C221.753 52.1181 222.004 52.3673 222.355 52.5642C222.705 52.7612 223.178 52.8603 223.774 52.8603Z" fill="white"/>
</svg>
