<svg width="121" height="120" viewBox="0 0 121 120" fill="none" xmlns="http://www.w3.org/2000/svg">
<path d="M34.1953 37.8906H77.339L77.9377 38.4893V46.1795C77.9377 46.4988 78.1965 46.7576 78.5158 46.7576H86.206L86.8047 47.3564V67.3522L69.2213 80.5574H51.7787L34.1953 67.3522V37.8906Z" fill="#3B6F80"/>
<path fill-rule="evenodd" clip-rule="evenodd" d="M89.6953 55.1468L96.9696 61.0938C97.3052 61.3683 97.5 61.779 97.5 62.2128V107.555C97.5 108.353 96.8529 109 96.0547 109H24.9453C24.1471 109 23.5 108.353 23.5 107.555V62.2128C23.5 61.779 23.6948 61.3683 24.0306 61.0938L31.3047 55.1472V36.4453C31.3047 35.6472 31.9518 35 32.75 35H77.9377C78.321 35 78.6887 35.1523 78.9597 35.4233L89.272 45.7358C89.543 46.0069 89.6953 46.3745 89.6953 46.7578V55.1468ZM93.7121 62.1646L89.6953 58.8806V65.1812L93.7121 62.1646ZM77.339 37.8906H34.1953V67.3522L51.7787 80.5574H69.2213L86.8047 67.3522V47.3564L86.206 46.7576L77.9377 38.4893L77.339 37.8906ZM31.3047 65.1812V58.8808L27.2879 62.1645L31.3047 65.1812ZM48.5367 81.7376L26.3906 65.1057V103.884L48.5367 81.7376ZM50.9144 83.448L28.2531 106.109H92.7469L70.0857 83.448H50.9144ZM72.4633 81.7378L94.6094 103.884V65.1057L72.4633 81.7378Z" fill="#3B6F80"/>
<path d="M77.9377 38.4893V46.1795C77.9377 46.4988 78.1965 46.7576 78.5158 46.7576H86.206L77.9377 38.4893Z" fill="#C5922C"/>
<path d="M71.3616 67.8086H71.368C71.368 67.8086 74.7649 67.7936 75.7012 67.7936C78.3858 67.7936 80.57 65.6096 80.57 62.9247C80.57 61.3483 79.8164 59.9452 78.6511 59.0548C79.1403 58.3489 79.4278 57.4931 79.4278 56.5711C79.4278 54.1604 77.4666 52.1992 75.0558 52.1992H71.3613C70.5631 52.1992 69.916 52.8464 69.916 53.6445V66.3633C69.916 66.7477 70.0692 67.1163 70.3417 67.3876C70.6129 67.6573 70.9795 67.8086 71.3616 67.8086ZM72.8069 55.0898H75.0561C75.8729 55.0898 76.5374 55.7544 76.5374 56.5711C76.5374 57.3879 75.8729 58.0524 75.0561 58.0524C74.7867 58.0524 72.8069 58.0558 72.8069 58.0558V55.0898ZM72.8069 60.9499C73.1076 60.9487 75.7013 60.9464 75.7013 60.9464C76.7921 60.9464 77.6795 61.834 77.6795 62.9247C77.6795 64.0155 76.7921 64.9029 75.7013 64.9029C75.1731 64.9029 73.8543 64.9077 72.8069 64.9119V60.9499Z" fill="white"/>
<path d="M58.793 67.8086C63.0965 67.8086 66.5977 64.3073 66.5977 60.0039C66.5977 55.7005 63.0965 52.1992 58.793 52.1992C54.4894 52.1992 50.9883 55.7005 50.9883 60.0039C50.9883 64.3073 54.4894 67.8086 58.793 67.8086ZM58.793 55.0898C61.5026 55.0898 63.707 57.2942 63.707 60.0039C63.707 62.7136 61.5026 64.918 58.793 64.918C56.0833 64.918 53.8789 62.7136 53.8789 60.0039C53.8789 57.2942 56.0833 55.0898 58.793 55.0898Z" fill="white"/>
<path d="M46.3547 52.1992C45.5564 52.1992 44.9093 52.8464 44.9093 53.6445V63.8098C44.9093 64.231 44.693 64.6127 44.3448 64.8061C43.6784 65.1762 42.9271 64.4682 42.895 64.4375C42.6318 64.1619 42.2646 63.9943 41.8535 63.9943C41.0553 63.9943 40.4082 64.6415 40.4082 65.4396C40.4082 65.8474 40.5777 66.2153 40.8496 66.478L40.849 66.4786C41.4432 67.0767 42.5934 67.8148 43.9355 67.8148C44.5136 67.8148 45.1276 67.6778 45.7478 67.3335C47.0136 66.6308 47.8 65.2807 47.8 63.81V53.6445C47.8 52.8464 47.1529 52.1992 46.3547 52.1992Z" fill="white"/>
</svg>
