<svg width="121" height="120" viewBox="0 0 121 120" fill="none" xmlns="http://www.w3.org/2000/svg">
<path d="M32.7439 82.2479H19.4299V95.5746H32.7439V82.2479Z" fill="#3B6F80"/>
<path d="M56.2474 67.8332L42.9292 67.8373V95.5745H56.2474V67.8332Z" fill="#3B6F80"/>
<path d="M79.7462 52.4252L66.4322 52.4293V95.579L79.7504 95.5749L79.7462 52.4252Z" fill="#3B6F80"/>
<path d="M103.249 32.9878H89.9346V95.5744H103.249V32.9878Z" fill="#C5922C"/>
<path fill-rule="evenodd" clip-rule="evenodd" d="M70.0379 27.9364C69.8983 28.0719 69.8244 28.2526 69.8285 28.4457C69.8203 28.6346 69.8939 28.8198 70.0253 28.9553C70.1567 29.0908 70.3374 29.1688 70.5263 29.1688V29.1647L77.6228 29.2756L27.0402 67.8047C26.7897 67.9813 26.687 68.3057 26.7856 68.5973C26.8841 68.8889 27.1593 69.0819 27.4673 69.0737C27.6234 69.0778 27.7712 69.0285 27.8944 68.9299L78.272 30.6017C78.3295 30.5565 78.3787 30.5031 78.4116 30.4374L78.3254 37.193C78.3212 37.386 78.3911 37.5667 78.5225 37.7023C78.6539 37.8419 78.8346 37.9158 79.0276 37.9158C79.4136 37.9158 79.734 37.6037 79.7381 37.2177L79.8695 28.5976C79.8695 28.2075 79.5574 27.8871 79.1672 27.8748H79.1713L70.5513 27.7434C70.3583 27.7352 70.1735 27.805 70.0379 27.9364ZM81.1713 96.2889V51.7147C81.1713 51.5258 81.0974 51.3451 80.9659 51.2137C80.8304 51.0782 80.6497 51.0042 80.4608 51.0042H65.7212C65.3269 51.0042 65.0066 51.3246 65.0066 51.7147V96.2889C65.0066 96.6791 65.3269 96.9994 65.7212 96.9994H80.4608C80.8551 96.9994 81.1713 96.6791 81.1713 96.2889ZM66.4322 52.4293L79.7462 52.4252L79.7504 95.5749L66.4322 95.579V52.4293ZM57.6725 96.2887V67.1228C57.6725 66.7326 57.3522 66.4123 56.9579 66.4123H42.2183C41.8241 66.4123 41.5078 66.7326 41.5078 67.1228V96.2887C41.5078 96.6788 41.8241 96.9992 42.2183 96.9992H56.9579C57.3522 96.9992 57.6725 96.6788 57.6725 96.2887ZM42.9292 67.8373L56.2474 67.8332V95.5745H42.9292V67.8373ZM18.136 23.2958C18.0005 23.4847 17.9635 23.7229 18.0374 23.9446L19.988 29.957C21.2652 33.842 24.8545 36.499 28.9448 36.5935L34.5752 36.7126V47.6653C34.5752 48.0555 34.8914 48.3758 35.2857 48.3758C35.6799 48.3758 35.9961 48.0555 35.9961 47.6653V36.7126L41.6265 36.5935C45.7333 36.5073 49.339 33.842 50.6285 29.9447L52.6121 23.9323C52.686 23.7106 52.6449 23.4683 52.5012 23.2876C52.3657 23.1028 52.148 22.996 51.9221 23.0001H51.918L45.5895 23.1315C41.4992 23.2259 37.9099 25.8831 36.6327 29.768L35.3186 33.7228L34.0167 29.7803C32.7355 25.8954 29.1461 23.2342 25.0558 23.1438L18.7274 23.0124C18.4974 23.0042 18.2756 23.111 18.136 23.2958ZM41.6392 35.1681L36.3169 35.279L37.9801 30.2277C39.0766 26.9095 42.1485 24.6425 45.6474 24.5686H45.6433L50.9657 24.4577L49.3025 29.5049C48.2059 32.8273 45.1341 35.0942 41.6392 35.1681ZM21.3891 29.5049L19.7259 24.4577L25.0482 24.5686C28.5431 24.6425 31.6149 26.9095 32.7114 30.2277L32.7156 30.2318L34.3788 35.279L29.0564 35.1681C25.5574 35.0942 22.4856 32.8273 21.3891 29.5049ZM34.169 96.2887V81.5375C34.1731 81.3445 34.0992 81.1597 33.9637 81.0241C33.8323 80.8886 33.6475 80.8147 33.4585 80.8147H18.7158C18.5269 80.8147 18.3421 80.8886 18.2106 81.0241C18.0751 81.1597 18.0012 81.3445 18.0053 81.5375V96.2887C18.0053 96.6788 18.3256 96.9991 18.7158 96.9991H33.4585C33.8487 96.9991 34.169 96.6788 34.169 96.2887ZM19.4299 82.2479H32.7439V95.5746H19.4299V82.2479Z" fill="#3B6F80"/>
<path fill-rule="evenodd" clip-rule="evenodd" d="M104.674 32.2773V96.2895C104.674 96.6797 104.353 97 103.963 97H89.2205C88.8304 97 88.51 96.6797 88.51 96.2895V32.2773C88.51 31.883 88.8304 31.5668 89.2205 31.5668H103.963C104.353 31.5668 104.674 31.883 104.674 32.2773ZM89.9346 32.9878H103.249V95.5744H89.9346V32.9878Z" fill="#C5922C"/>
</svg>
