<svg width="126" height="120" viewBox="0 0 126 120" fill="none" xmlns="http://www.w3.org/2000/svg">
<path d="M102.555 89.5429C102.555 84.0169 106.699 78.6485 106.741 78.595C106.882 78.415 106.969 78.1991 106.993 77.972C107.017 77.7448 106.976 77.5155 106.876 77.3102C106.776 77.1049 106.621 76.9318 106.427 76.8106C106.233 76.6895 106.01 76.6251 105.781 76.6249H75.8117C75.5396 75.0268 74.7445 73.5642 73.5512 72.4669C72.3579 71.3695 70.834 70.6995 69.2187 70.5621V40.5114C69.955 40.3199 70.6364 39.9593 71.2088 39.4582C71.7812 38.9572 72.2288 38.3294 72.516 37.625H91.2346L81.4817 64.015C81.4164 64.2012 81.3943 64.3998 81.4171 64.5957C81.5332 69.2264 86.6727 72.9687 92.9843 72.9687C99.2959 72.9687 104.435 69.2265 104.552 64.5813C104.566 64.39 104.543 64.1981 104.487 64.0149L94.734 37.625H98.4687C98.7919 37.625 99.1019 37.4966 99.3304 37.268C99.559 37.0395 99.6874 36.7295 99.6874 36.4062C99.6874 36.083 99.559 35.773 99.3304 35.5444C99.1019 35.3159 98.7919 35.1875 98.4687 35.1875H72.8326C72.709 34.2206 72.2988 33.3128 71.6547 32.5811C71.0106 31.8495 70.1621 31.3275 69.2187 31.0823V25.4375H72.2656C72.5888 25.4375 72.8988 25.3091 73.1273 25.0805C73.3559 24.852 73.4843 24.542 73.4843 24.2187C73.4843 23.8955 73.3559 23.5855 73.1273 23.357C72.8988 23.1284 72.5888 23 72.2656 23H63.7343C63.4111 23 63.1011 23.1284 62.8725 23.357C62.644 23.5855 62.5156 23.8955 62.5156 24.2187C62.5156 24.542 62.644 24.852 62.8725 25.0805C63.1011 25.3091 63.4111 25.4375 63.7343 25.4375H66.7812V31.0823C65.8377 31.3275 64.9893 31.8495 64.3452 32.5811C63.7011 33.3128 63.2909 34.2206 63.1673 35.1875H37.5312C37.208 35.1875 36.898 35.3159 36.6695 35.5444C36.4409 35.773 36.3125 36.083 36.3125 36.4062C36.3125 36.7295 36.4409 37.0395 36.6695 37.268C36.898 37.4966 37.208 37.625 37.5312 37.625H41.2659L31.5131 64.0149C31.4542 64.2026 31.4323 64.3998 31.4484 64.5957C31.5645 69.2264 36.704 72.9687 43.0156 72.9687C49.3272 72.9687 54.4667 69.2264 54.5838 64.5811C54.5966 64.3899 54.5743 64.1981 54.5181 64.0149L44.7653 37.625H63.4839C63.7711 38.3294 64.2187 38.9572 64.7911 39.4583C65.3635 39.9593 66.0449 40.3199 66.7812 40.5114V70.5621C65.1659 70.6996 63.642 71.3696 62.4487 72.4669C61.2554 73.5642 60.4603 75.0268 60.1882 76.6249H39.1082C36.4435 76.6129 33.8827 77.6582 31.9878 79.5317C30.0928 81.4052 29.0183 83.9539 29 86.6186V91.0062C29.0183 93.6709 30.0928 96.2196 31.9878 98.0931C33.8827 99.9666 36.4435 101.012 39.1082 101H105.781C106.015 101 106.244 100.933 106.44 100.806C106.637 100.68 106.793 100.499 106.89 100.287C106.987 100.074 107.021 99.8379 106.987 99.6066C106.954 99.3753 106.854 99.1584 106.701 98.9819C106.66 98.9343 102.555 94.1543 102.555 89.5429ZM92.9843 70.5312C88.5699 70.5312 84.8768 68.4341 84.0276 65.6562H92.9843H101.941C101.092 68.4341 97.3987 70.5312 92.9843 70.5312ZM101.594 63.2187H84.3745L92.9843 39.922L101.594 63.2187ZM43.0156 70.5312C38.6012 70.5312 34.9081 68.4341 34.0589 65.6562H51.9723C51.1231 68.4341 47.43 70.5312 43.0156 70.5312ZM51.6254 63.2187H34.4058L43.0156 39.922L51.6254 63.2187ZM65.5625 35.7969C65.5625 35.3148 65.7054 34.8435 65.9732 34.4427C66.2411 34.0418 66.6218 33.7294 67.0672 33.5449C67.5126 33.3604 68.0027 33.3121 68.4755 33.4062C68.9483 33.5002 69.3826 33.7324 69.7235 34.0733C70.0644 34.4142 70.2966 34.8485 70.3906 35.3213C70.4847 35.7942 70.4364 36.2843 70.2519 36.7296C70.0674 37.175 69.755 37.5557 69.3541 37.8236C68.9533 38.0914 68.482 38.2344 67.9999 38.2344C67.3537 38.2337 66.7341 37.9766 66.2771 37.5197C65.8202 37.0627 65.5631 36.4431 65.5625 35.7969ZM67.3906 72.9687H68.6093C69.6898 72.9701 70.7393 73.3297 71.5936 73.9913C72.4478 74.6529 73.0586 75.5791 73.3302 76.6249H62.6697C62.9413 75.5791 63.5521 74.6529 64.4063 73.9913C65.2606 73.3297 66.3101 72.9701 67.3906 72.9687ZM43.625 98.5624H39.1082C37.0897 98.5752 35.1485 97.7869 33.7105 96.3704C32.2725 94.9538 31.455 93.0247 31.4375 91.0062V86.6186C31.455 84.6001 32.2725 82.671 33.7105 81.2545C35.1485 79.8379 37.0897 79.0496 39.1082 79.0624H43.625L43.625 98.5624ZM49.7187 98.5624H46.0625V79.0624H49.7187V98.5624ZM52.1562 98.5624V79.0624H103.485C102.093 81.3428 100.118 85.3219 100.118 89.5429C100.118 93.0539 101.964 96.4802 103.354 98.5624H52.1562Z" fill="#3B6F80"/>
<path d="M52.1562 98.5624V79.0624H103.485C102.093 81.3428 100.118 85.3219 100.118 89.5429C100.118 93.0539 101.964 96.4802 103.354 98.5624H52.1562Z" fill="#3B6F80"/>
<path d="M43.0156 70.5312C38.6012 70.5312 34.9081 68.4341 34.0589 65.6562H51.9723C51.1231 68.4341 47.43 70.5312 43.0156 70.5312Z" fill="#C5922C"/>
<path d="M92.9843 70.5312C88.5699 70.5312 84.8768 68.4341 84.0276 65.6562H92.9843H101.941C101.092 68.4341 97.3987 70.5312 92.9843 70.5312Z" fill="#C5922C"/>
<path d="M90.5469 81.5C89.1006 81.5 87.6868 81.9289 86.4843 82.7324C85.2817 83.5359 84.3445 84.6779 83.791 86.0141C83.2375 87.3503 83.0927 88.8206 83.3749 90.2391C83.657 91.6576 84.3535 92.9605 85.3762 93.9832C86.3988 95.0059 87.7018 95.7023 89.1203 95.9845C90.5388 96.2666 92.0091 96.1218 93.3452 95.5684C94.6814 95.0149 95.8235 94.0776 96.627 92.8751C97.4305 91.6726 97.8594 90.2588 97.8594 88.8125C97.8572 86.8738 97.0861 85.0151 95.7152 83.6442C94.3443 82.2733 92.4856 81.5022 90.5469 81.5ZM90.5469 93.6875C89.5827 93.6875 88.6402 93.4016 87.8385 92.8659C87.0368 92.3302 86.4119 91.5689 86.043 90.6781C85.674 89.7873 85.5774 88.8071 85.7655 87.8614C85.9536 86.9158 86.4179 86.0471 87.0997 85.3654C87.7815 84.6836 88.6501 84.2193 89.5958 84.0312C90.5415 83.8431 91.5217 83.9396 92.4124 84.3086C93.3032 84.6776 94.0646 85.3024 94.6003 86.1041C95.1359 86.9058 95.4219 87.8483 95.4219 88.8125C95.4204 90.105 94.9063 91.3441 93.9924 92.258C93.0785 93.1719 91.8393 93.686 90.5469 93.6875Z" fill="white"/>
</svg>
