<svg width="121" height="120" viewBox="0 0 121 120" fill="none" xmlns="http://www.w3.org/2000/svg">
<path d="M46.0123 42.1845C45.9194 42.292 45.8486 42.4168 45.804 42.5517C45.7594 42.6865 45.7418 42.8289 45.7523 42.9706L45.8138 43.7679L45.0754 43.4629C44.8103 43.3537 44.5129 43.3537 44.2478 43.4629L43.5094 43.7679L43.5709 42.9706C43.582 42.8292 43.5651 42.687 43.5213 42.5521C43.4774 42.4173 43.4074 42.2923 43.3152 42.1845L42.7952 41.5779L43.5752 41.3907C43.8536 41.323 44.094 41.1483 44.2443 40.9045L44.6629 40.2233L45.0806 40.9045C45.2309 41.1483 45.4714 41.323 45.7497 41.3907L46.5297 41.5779L46.0123 42.1845Z" fill="#C5922C"/>
<path fill-rule="evenodd" clip-rule="evenodd" d="M51.5203 37.2168C52.426 38.5726 52.9094 40.1666 52.9092 41.7971C52.9067 43.9825 52.0375 46.0776 50.4922 47.6229C48.9469 49.1682 46.8517 50.0375 44.6664 50.04C43.0358 50.0402 41.4419 49.5568 40.0861 48.651C38.7303 47.7453 37.6735 46.4578 37.0495 44.9514C36.4254 43.445 36.2621 41.7874 36.5801 40.1882C36.8982 38.589 37.6833 37.12 38.8363 35.9671C39.9893 34.8141 41.4582 34.029 43.0574 33.7109C44.6567 33.3928 46.3143 33.5562 47.8206 34.1802C49.327 34.8043 50.6145 35.861 51.5203 37.2168ZM41.2899 46.8496C42.2894 47.5172 43.4644 47.8735 44.6664 47.8733C46.2774 47.8713 47.8218 47.2303 48.9609 46.0911C50.1 44.9518 50.7407 43.4073 50.7426 41.7963C50.7426 40.5943 50.3861 39.4193 49.7183 38.4199C49.0505 37.4206 48.1014 36.6416 46.9909 36.1817C45.8804 35.7218 44.6585 35.6015 43.4796 35.836C42.3007 36.0706 41.2179 36.6495 40.3681 37.4994C39.5182 38.3494 38.9395 39.4323 38.7051 40.6112C38.4707 41.7901 38.5912 43.012 39.0513 44.1225C39.5114 45.2329 40.2904 46.1819 41.2899 46.8496ZM60.1874 61.8369C60.1734 62.0508 60.0962 62.2556 59.9656 62.4255C59.8352 62.5962 59.6578 62.7243 59.4544 62.7932C59.2509 62.8622 59.0316 62.8691 58.8242 62.8129L55.3966 61.8943L54.4788 65.3219C54.4232 65.529 54.3075 65.7149 54.1463 65.8562C53.9851 65.9975 53.7856 66.0878 53.5731 66.1158C53.5262 66.1217 53.4791 66.1246 53.4318 66.1245C53.2418 66.1244 53.055 66.0743 52.8904 65.9792C52.7258 65.8841 52.5891 65.7474 52.4941 65.5828L46.3503 54.9427C45.8537 55.2822 45.2659 55.4632 44.6643 55.4618C44.0627 55.4604 43.4757 55.2767 42.9807 54.9349L36.8326 65.5828C36.7375 65.7474 36.6008 65.8841 36.4362 65.9792C36.2716 66.0743 36.0849 66.1244 35.8948 66.1245C35.8476 66.1246 35.8004 66.1217 35.7536 66.1158C35.541 66.0878 35.3416 65.9975 35.1804 65.8562C35.0192 65.7149 34.9035 65.529 34.8479 65.3219L33.9362 61.8925L30.5085 62.8112C30.3015 62.8663 30.0829 62.8589 29.8802 62.7898C29.6774 62.7208 29.4997 62.5933 29.3693 62.4234C29.239 62.2534 29.1619 62.0487 29.1478 61.835C29.1337 61.6213 29.1831 61.4082 29.29 61.2226L34.958 51.405C34.5125 50.933 34.2308 50.3301 34.1546 49.6855L33.7741 46.6158C33.7588 46.4615 33.6985 46.315 33.6008 46.1946L31.643 43.6518C31.2268 43.1221 31.0015 42.4675 31.0036 41.7939C31.0056 41.1203 31.2349 40.467 31.6542 39.9399L33.5557 37.4993C33.6533 37.3795 33.7136 37.2337 33.729 37.0799L34.1424 33.8975C34.2229 33.2286 34.5266 32.6064 35.0043 32.1315C35.4821 31.6566 36.1061 31.3566 36.7754 31.2801L39.846 30.8997C40 30.8844 40.1462 30.8241 40.2663 30.7263L42.81 28.7685C43.3397 28.3525 43.9943 28.1273 44.6679 28.1294C45.3415 28.1314 45.9947 28.3606 46.5219 28.7798L48.9616 30.6865C49.0814 30.784 49.2273 30.8443 49.381 30.8598L52.5643 31.2741C53.233 31.3546 53.8551 31.6582 54.3299 32.136C54.8047 32.6138 55.1045 33.2378 55.1808 33.907L55.5612 36.9767C55.5762 37.1312 55.6365 37.2777 55.7346 37.3979L57.688 39.9407C58.1041 40.4705 58.3293 41.1251 58.3272 41.7987C58.3252 42.4722 58.096 43.1254 57.6768 43.6527L55.7753 46.0932C55.6777 46.213 55.6174 46.3589 55.602 46.5127L55.1886 49.6951C55.108 50.3378 54.8234 50.9378 54.3765 51.4067L60.0445 61.2243C60.1517 61.4099 60.2015 61.6231 60.1874 61.8369ZM35.7458 60.2875L36.2658 62.2349L41.2517 53.5942L40.3686 52.9061C40.2485 52.8082 40.1023 52.7479 39.9482 52.7327L36.9149 52.3384L32.4672 60.0413L34.4146 59.5213C34.5523 59.4839 34.6961 59.474 34.8376 59.4922C34.9792 59.5105 35.1157 59.5565 35.2394 59.6277C35.3631 59.6989 35.4715 59.7938 35.5584 59.9071C35.6453 60.0203 35.709 60.1496 35.7458 60.2875ZM41.7015 51.1961L44.1412 53.1028C44.2915 53.2237 44.4796 53.2893 44.6725 53.2888C44.8653 53.2884 45.0522 53.2218 45.202 53.1002L47.7456 51.1424C48.1717 50.8087 48.6815 50.5988 49.219 50.5357L52.2887 50.1553C52.4803 50.1353 52.6593 50.0504 52.796 49.9146C52.9326 49.7789 53.0188 49.6005 53.0401 49.4091L53.4535 46.2258C53.5196 45.6875 53.7325 45.1778 54.0688 44.7525L55.9755 42.3128C56.0963 42.1629 56.1621 41.9762 56.1621 41.7837C56.1621 41.5912 56.0963 41.4045 55.9755 41.2546L54.0177 38.7109C53.6842 38.2847 53.4744 37.775 53.411 37.2376L53.0306 34.167C53.0107 33.9755 52.9258 33.7965 52.7901 33.6599C52.6543 33.5234 52.4758 33.4374 52.2844 33.4165L49.102 33.0022C48.5637 32.9363 48.0539 32.7234 47.6286 32.3869L45.189 30.4854C45.039 30.3648 44.8523 30.299 44.6599 30.299C44.4674 30.299 44.2807 30.3648 44.1308 30.4854L41.5871 32.4432C41.161 32.7769 40.6513 32.9868 40.1138 33.0499L37.044 33.4303C36.8524 33.4503 36.6735 33.5352 36.5368 33.671C36.4001 33.8067 36.3139 33.9851 36.2926 34.1765L35.8792 37.3598C35.8136 37.8982 35.6007 38.408 35.2639 38.8331L33.3572 41.2737C33.2365 41.4236 33.1706 41.6103 33.1706 41.8028C33.1706 41.9953 33.2365 42.182 33.3572 42.3319L35.3124 44.8729C35.6456 45.2993 35.8555 45.8089 35.9191 46.3463L36.2996 49.4169C36.3194 49.6084 36.4043 49.7874 36.5401 49.9239C36.6759 50.0605 36.8543 50.1464 37.0458 50.1674L40.2282 50.5817C40.7663 50.6475 41.276 50.8601 41.7015 51.1961ZM54.0919 59.6299C54.3407 59.4862 54.6363 59.4472 54.9138 59.5213L56.8569 60.0431L52.404 52.3297L49.4816 52.692C49.3274 52.7068 49.181 52.7671 49.0612 52.8653L48.0914 53.6167L53.067 62.2349L53.587 60.2875C53.6615 60.01 53.8431 59.7735 54.0919 59.6299ZM54.1173 74.9254C54.3204 74.7222 54.4346 74.4467 54.4346 74.1593C54.4346 73.8726 54.3209 73.5976 54.1185 73.3945C53.9161 73.1915 53.6414 73.0769 53.3547 73.076H45.7393C45.452 73.076 45.1764 73.1901 44.9733 73.3933C44.7701 73.5965 44.656 73.872 44.656 74.1593C44.656 74.4467 44.7701 74.7222 44.9733 74.9254C45.1764 75.1285 45.452 75.2427 45.7393 75.2427H53.3512C53.6386 75.2427 53.9141 75.1285 54.1173 74.9254ZM56.0456 70.072C56.2488 69.8689 56.3629 69.5933 56.3629 69.306L56.3664 69.3069C56.3666 69.1645 56.3387 69.0235 56.2844 68.8919C56.23 68.7603 56.1503 68.6407 56.0496 68.54C55.949 68.4393 55.8295 68.3594 55.6979 68.305C55.5664 68.2505 55.4254 68.2226 55.283 68.2227H45.7393C45.452 68.2227 45.1764 68.3368 44.9733 68.54C44.7701 68.7431 44.656 69.0187 44.656 69.306C44.656 69.5933 44.7701 69.8689 44.9733 70.072C45.1764 70.2752 45.452 70.3893 45.7393 70.3893H55.2796C55.5669 70.3893 55.8424 70.2752 56.0456 70.072ZM54.1173 87.3932C54.3204 87.1901 54.4346 86.9145 54.4346 86.6272C54.4346 86.3405 54.3209 86.0655 54.1185 85.8624C53.9161 85.6593 53.6414 85.5448 53.3547 85.5439H45.7393C45.452 85.5439 45.1764 85.658 44.9733 85.8612C44.7701 86.0643 44.656 86.3399 44.656 86.6272C44.656 86.9145 44.7701 87.1901 44.9733 87.3932C45.1764 87.5964 45.452 87.7105 45.7393 87.7105H53.3512C53.6386 87.7105 53.9141 87.5964 54.1173 87.3932ZM44.9698 81.0078C44.7666 81.211 44.6525 81.4865 44.6525 81.7739L44.656 81.7747C44.656 82.0614 44.7697 82.3363 44.9721 82.5392C45.1745 82.7422 45.4492 82.8565 45.7358 82.8572H50.8318C51.1192 82.8572 51.3947 82.7431 51.5979 82.5399C51.801 82.3367 51.9152 82.0612 51.9152 81.7739C51.9152 81.4865 51.801 81.211 51.5979 81.0078C51.3947 80.8047 51.1192 80.6905 50.8318 80.6905H45.7358C45.4485 80.6905 45.173 80.8047 44.9698 81.0078ZM42.9762 68.0814C42.9762 67.7941 42.8622 67.5186 42.6592 67.3153L42.6626 67.3161C42.5619 67.2145 42.4421 67.1338 42.31 67.0787C42.178 67.0237 42.0363 66.9953 41.8932 66.9952C41.7501 66.9951 41.6084 67.0233 41.4763 67.0783C41.3442 67.1332 41.2243 67.2138 41.1234 67.3153L34.8202 73.6185L32.9135 70.3096C32.7688 70.0628 32.5324 69.8833 32.2558 69.8101C31.9793 69.737 31.685 69.7763 31.4373 69.9193C31.1895 70.0623 31.0084 70.2976 30.9334 70.5736C30.8585 70.8497 30.8958 71.1442 31.0372 71.3929L33.6528 75.9247C33.7361 76.0685 33.8513 76.1913 33.9895 76.2835C34.1278 76.3758 34.2853 76.4351 34.4501 76.4569C34.4969 76.4631 34.5441 76.4662 34.5914 76.4664C34.8787 76.4664 35.1542 76.3523 35.3575 76.1492L42.6592 68.8475C42.8622 68.6442 42.9762 68.3687 42.9762 68.0814ZM42.894 80.1353C42.8396 80.0039 42.7598 79.8845 42.6592 79.784L42.6626 79.7849C42.562 79.6831 42.4421 79.6024 42.3101 79.5472C42.178 79.4921 42.0363 79.4636 41.8932 79.4635C41.7501 79.4635 41.6084 79.4917 41.4763 79.5467C41.3441 79.6018 41.2242 79.6824 41.1234 79.784L34.8202 86.0873L32.9135 82.7783C32.8429 82.6541 32.7484 82.5451 32.6355 82.4576C32.5226 82.3701 32.3935 82.3057 32.2556 82.2683C32.1177 82.2309 31.9738 82.2211 31.8321 82.2395C31.6904 82.2579 31.5538 82.3041 31.4301 82.3756C31.3063 82.447 31.198 82.5422 31.1112 82.6557C31.0244 82.7692 30.9609 82.8988 30.9244 83.0369C30.8879 83.175 30.879 83.319 30.8984 83.4605C30.9178 83.6021 30.9649 83.7384 31.0372 83.8617L33.6528 88.3926C33.7359 88.5366 33.851 88.6596 33.9893 88.7521C34.1276 88.8445 34.2852 88.9039 34.4501 88.9256C34.497 88.9315 34.5441 88.9344 34.5914 88.9343C34.8787 88.9342 35.1542 88.8201 35.3575 88.6171L42.6592 81.3154C42.7598 81.2149 42.8396 81.0955 42.894 80.9641C42.9485 80.8327 42.9765 80.6919 42.9765 80.5497C42.9765 80.4075 42.9485 80.2667 42.894 80.1353ZM100.168 88.2844C100.459 88.6655 100.671 89.1005 100.793 89.5643C101.042 90.4997 100.912 91.4959 100.427 92.3343C99.9435 93.1728 99.1465 93.7849 98.2116 94.0363C97.898 94.1211 97.5745 94.1642 97.2496 94.1646C96.6149 94.1648 95.9915 93.9971 95.4426 93.6784L80.1026 84.8228V94.3795C80.1026 94.6668 79.9885 94.9424 79.7853 95.1456C79.5822 95.3487 79.3066 95.4629 79.0193 95.4629H77.3189C77.71 95.746 78.0285 96.1178 78.2482 96.5477C78.468 96.9776 78.5829 97.4535 78.5834 97.9363V99.9167C78.5834 100.204 78.4692 100.48 78.2661 100.683C78.0629 100.886 77.7874 101 77.5 101H53.5748C53.4325 101 53.2915 100.972 53.16 100.918C53.0285 100.863 52.9089 100.784 52.8082 100.683C52.7076 100.582 52.6277 100.463 52.5732 100.331C52.5187 100.2 52.4906 100.059 52.4906 99.9167V97.9363C52.4909 97.4535 52.6057 96.9775 52.8255 96.5476C53.0453 96.1176 53.3639 95.7459 53.7551 95.4629H24.9818C24.6945 95.4629 24.4189 95.3487 24.2157 95.1456C24.0126 94.9424 23.8984 94.6668 23.8984 94.3795V24.0833C23.8984 23.796 24.0126 23.5205 24.2157 23.3173C24.4189 23.1141 24.6945 23 24.9818 23H65.1509C65.2943 23.0002 65.4363 23.0289 65.5686 23.0844C65.7008 23.1399 65.8207 23.2211 65.9214 23.3233L79.788 37.1899C79.8888 37.2903 79.9688 37.4095 80.0233 37.5409C80.0779 37.6722 80.106 37.813 80.1061 37.9552V65.6019L84.163 67.9419C84.7093 68.2572 85.1302 68.7513 85.3545 69.3409C85.5788 69.9305 85.5928 70.5794 85.3943 71.1781C85.1957 71.7768 84.7966 72.2887 84.2644 72.6274C83.7322 72.966 83.0995 73.1107 82.473 73.037L80.4346 76.5678L99.0982 87.3448C99.5137 87.584 99.8774 87.9034 100.168 88.2844ZM64.5746 80.3057L72.9726 85.1539L80.4822 72.1521L72.0834 67.2988L64.5746 80.3057ZM62.5526 81.6404C62.467 81.5909 62.3698 81.5652 62.271 81.5659H62.2666C62.1398 81.564 62.0159 81.6044 61.9146 81.6806C61.8132 81.7569 61.74 81.8646 61.7066 81.987C61.6731 82.1094 61.6813 82.2394 61.7298 82.3566C61.7783 82.4738 61.8644 82.5715 61.9746 82.6345L72.2532 88.5668C72.3187 88.6076 72.3917 88.6349 72.4679 88.6469C72.5441 88.6589 72.6219 88.6555 72.6968 88.6368C72.7716 88.6181 72.8419 88.5845 72.9035 88.538C72.9651 88.4916 73.0167 88.4332 73.0552 88.3664C73.0937 88.2995 73.1184 88.2256 73.1278 88.1491C73.1371 88.0725 73.131 87.9948 73.1097 87.9207C73.0884 87.8465 73.0524 87.7774 73.0038 87.7175C72.9552 87.6576 72.8951 87.608 72.827 87.5719L62.5526 81.6404ZM82.9401 70.8651C83.0855 70.8258 83.2101 70.7317 83.2876 70.6025C83.3616 70.4701 83.3801 70.3141 83.3407 70.1676C83.3014 70.0211 83.2065 69.8958 83.0762 69.8182L72.8018 63.8867C72.6696 63.8125 72.5135 63.7929 72.367 63.8321C72.2205 63.8713 72.0951 63.9661 72.0175 64.0965C71.9427 64.2287 71.9228 64.385 71.9622 64.5318C72.0016 64.6785 72.0971 64.8038 72.2281 64.8808L82.5076 70.8131C82.6396 70.8857 82.7946 70.9043 82.9401 70.8651ZM76.4037 36.8667L66.2342 26.6989V36.8667H76.4037ZM57.454 94.8735H73.6208V93.98C73.6206 93.8621 73.5972 93.7454 73.5518 93.6365C73.5065 93.5277 73.4402 93.4288 73.3566 93.3456C73.2731 93.2624 73.174 93.1965 73.065 93.1516C72.9559 93.1066 72.8391 93.0836 72.7212 93.0839H58.351C58.1134 93.0841 57.8855 93.1786 57.7173 93.3465C57.5492 93.5145 57.4545 93.7423 57.454 93.98V94.8735ZM54.6582 98.8333H76.4167V97.9363C76.4165 97.6987 76.322 97.4709 76.154 97.3029C75.986 97.1349 75.7582 97.0404 75.5206 97.0402H55.5543C55.3167 97.0404 55.0889 97.1349 54.9209 97.3029C54.7529 97.4709 54.6584 97.6987 54.6582 97.9363V98.8333ZM75.7086 93.2962H77.936L77.9325 83.5748L76.7712 82.9049L74.7319 86.4357C74.939 86.7139 75.0917 87.0289 75.1817 87.3639C75.2754 87.7113 75.2995 88.0739 75.2528 88.4307C75.2061 88.7876 75.0894 89.1317 74.9095 89.4433C74.7295 89.755 74.4899 90.028 74.2042 90.2469C73.9185 90.4658 73.5925 90.6261 73.2447 90.7187C73.0109 90.7813 72.77 90.813 72.528 90.8132C72.0495 90.813 71.5795 90.6866 71.1656 90.4466L60.8912 84.5143C60.3445 84.1993 59.9233 83.7052 59.6987 83.1156C59.4741 82.5259 59.4599 81.8768 59.6586 81.2779C59.8573 80.679 60.2566 80.1671 60.7891 79.8286C61.3216 79.4901 61.9546 79.3457 62.5812 79.42L70.3188 66.0196C69.9424 65.514 69.7517 64.894 69.7791 64.2642C69.8064 63.6343 70.0501 63.0332 70.469 62.5621C70.8878 62.091 71.4564 61.7787 72.0786 61.6779C72.7009 61.5771 73.339 61.6939 73.8852 62.0087L77.936 64.3487V39.0342H65.1509C64.8636 39.0342 64.588 38.9201 64.3849 38.7169C64.1817 38.5137 64.0676 38.2382 64.0676 37.9509V25.1667H26.0651V93.2962H55.3662C55.5211 92.6201 55.9005 92.0164 56.4426 91.5837C56.9847 91.151 57.6574 90.9148 58.351 90.9137H72.7212C73.4153 90.9143 74.0886 91.1502 74.6313 91.5829C75.1739 92.0157 75.5537 92.6197 75.7086 93.2962ZM98.1641 91.6877C98.3195 91.5687 98.4499 91.4203 98.5479 91.2509C98.6462 91.0817 98.7101 90.8948 98.736 90.7008C98.7618 90.5069 98.7492 90.3098 98.6987 90.1207C98.6501 89.9329 98.5646 89.7567 98.4472 89.6022C98.3298 89.4478 98.1828 89.3183 98.0149 89.2211L79.3478 78.4441L77.858 81.0251L96.5225 91.8012C96.6904 91.8981 96.8758 91.9606 97.068 91.9851C97.2602 92.0097 97.4554 91.9958 97.6422 91.9442C97.8313 91.8938 98.0087 91.8067 98.1641 91.6877Z" fill="#3B6F80"/>
<path fill-rule="evenodd" clip-rule="evenodd" d="M49.5292 40.602C49.4716 40.4255 49.3696 40.2667 49.2331 40.1409C49.0965 40.0151 48.9299 39.9265 48.7492 39.8835L46.6926 39.3869L45.5859 37.5851C45.489 37.4272 45.3533 37.2968 45.1916 37.2063C45.0299 37.1158 44.8477 37.0683 44.6625 37.0683C44.4772 37.0683 44.295 37.1158 44.1333 37.2063C43.9717 37.2968 43.8359 37.4272 43.739 37.5851L42.6323 39.3869L40.5757 39.8835C40.3957 39.927 40.2299 40.0158 40.094 40.1416C39.9581 40.2674 39.8567 40.4259 39.7995 40.602C39.7423 40.7781 39.7312 40.9659 39.7673 41.1475C39.8033 41.3291 39.8853 41.4985 40.0054 41.6394L41.3774 43.2497L41.217 45.36C41.2025 45.5446 41.2356 45.7299 41.3131 45.8981C41.3906 46.0663 41.51 46.2118 41.6599 46.3207C41.8097 46.4295 41.9849 46.4981 42.1688 46.5199C42.3528 46.5417 42.5392 46.5159 42.7103 46.4451L44.6664 45.6382L46.6216 46.4451C46.7931 46.5163 46.9802 46.5421 47.1647 46.52C47.3491 46.4978 47.5248 46.4284 47.6746 46.3185C47.8246 46.2099 47.9441 46.0645 48.0218 45.8963C48.0995 45.7282 48.1328 45.5429 48.1183 45.3583L47.9545 43.2497L49.3212 41.6394C49.4417 41.4987 49.5241 41.3294 49.5605 41.1478C49.5969 40.9662 49.5861 40.7783 49.5292 40.602ZM45.804 42.5517C45.8486 42.4168 45.9194 42.292 46.0123 42.1845L46.5297 41.5779L45.7497 41.3907C45.4714 41.323 45.2309 41.1483 45.0806 40.9045L44.6629 40.2233L44.2443 40.9045C44.094 41.1483 43.8536 41.323 43.5752 41.3907L42.7952 41.5779L43.3152 42.1845C43.4074 42.2923 43.4774 42.4173 43.5213 42.5521C43.5651 42.687 43.582 42.8292 43.5709 42.9706L43.5094 43.7679L44.2478 43.4629C44.5129 43.3537 44.8103 43.3537 45.0754 43.4629L45.8138 43.7679L45.7523 42.9706C45.7418 42.8289 45.7594 42.6865 45.804 42.5517Z" fill="#C5922C"/>
<path d="M98.5479 91.2509C98.4499 91.4203 98.3195 91.5687 98.1641 91.6877C98.0087 91.8067 97.8313 91.8938 97.6422 91.9442C97.4554 91.9958 97.2602 92.0097 97.068 91.9851C96.8758 91.9606 96.6904 91.8981 96.5225 91.8012L77.858 81.0251L79.3478 78.4441L98.0149 89.2211C98.1828 89.3183 98.3298 89.4478 98.4472 89.6022C98.5646 89.7567 98.6501 89.9329 98.6987 90.1207C98.7492 90.3098 98.7618 90.5069 98.736 90.7008C98.7101 90.8948 98.6462 91.0817 98.5479 91.2509Z" fill="#3B6F80"/>
<path d="M66.2342 26.6989L76.4037 36.8667H66.2342V26.6989Z" fill="#3B6F80"/>
<path d="M62.271 81.5659C62.3698 81.5652 62.467 81.5909 62.5526 81.6404L72.827 87.5719C72.8951 87.608 72.9552 87.6576 73.0038 87.7175C73.0524 87.7774 73.0884 87.8465 73.1097 87.9207C73.131 87.9948 73.1371 88.0725 73.1278 88.1491C73.1184 88.2256 73.0937 88.2995 73.0552 88.3664C73.0167 88.4332 72.9651 88.4916 72.9035 88.538C72.8419 88.5845 72.7716 88.6181 72.6968 88.6368C72.6219 88.6555 72.5441 88.6589 72.4679 88.6469C72.3917 88.6349 72.3187 88.6076 72.2532 88.5668L61.9746 82.6345C61.8644 82.5715 61.7783 82.4738 61.7298 82.3566C61.6813 82.2394 61.6731 82.1094 61.7066 81.987C61.74 81.8646 61.8132 81.7569 61.9146 81.6806C62.0159 81.6044 62.1398 81.564 62.2666 81.5659H62.271Z" fill="#3B6F80"/>
<path d="M83.2876 70.6025C83.2101 70.7317 83.0855 70.8258 82.9401 70.8651C82.7946 70.9043 82.6396 70.8857 82.5076 70.8131L72.2281 64.8808C72.0971 64.8038 72.0016 64.6785 71.9622 64.5318C71.9228 64.385 71.9427 64.2287 72.0175 64.0965C72.0951 63.9661 72.2205 63.8713 72.367 63.8321C72.5135 63.7929 72.6696 63.8125 72.8018 63.8867L83.0762 69.8182C83.2065 69.8958 83.3014 70.0211 83.3407 70.1676C83.3801 70.3141 83.3616 70.4701 83.2876 70.6025Z" fill="#3B6F80"/>
</svg>
